<svg width="22" height="22" viewBox="0 0 22 22" fill="none" xmlns="http://www.w3.org/2000/svg">
<path fill-rule="evenodd" clip-rule="evenodd" d="M20.8995 3.18199C21.4853 2.59621 21.4853 1.64646 20.8995 1.06068C20.3137 0.474891 19.364 0.474892 18.7782 1.06068L11 8.83882L3.22185 1.0607C2.63607 0.47492 1.68632 0.474919 1.10053 1.0607C0.514745 1.64649 0.514745 2.59623 1.10053 3.18202L8.87868 10.9601L1.10047 18.7383C0.514686 19.3241 0.514686 20.2738 1.10047 20.8596C1.68626 21.4454 2.63601 21.4454 3.2218 20.8596L11 13.0815L18.7782 20.8597C19.364 21.4454 20.3138 21.4454 20.8996 20.8597C21.4853 20.2739 21.4853 19.3241 20.8996 18.7383L13.1213 10.9601L20.8995 3.18199Z" fill="url(#paint0_linear_0_1607)" fill-opacity="0.87"/>
<defs>
<linearGradient id="paint0_linear_0_1607" x1="6.55213" y1="0.621338" x2="23.6492" y2="10.9356" gradientUnits="userSpaceOnUse">
<stop offset="0.248619" stop-color="#654EA3"/>
<stop offset="1" stop-color="#5F4B8B"/>
</linearGradient>
</defs>
</svg>
