<svg width="34" height="35" viewBox="0 0 34 35" fill="none" xmlns="http://www.w3.org/2000/svg">
<path d="M4.33182 0.565918H29.4071C31.7894 0.565918 33.7369 2.52185 33.7369 4.9136V30.0885C33.7369 32.4796 31.7894 34.4342 29.4071 34.4342H4.33182C1.94954 34.4342 0 32.4795 0 30.0885V4.9136C0 2.52185 1.94954 0.565918 4.33182 0.565918ZM24.5769 4.32751C23.7404 4.32751 23.0582 5.01521 23.0582 5.85453V9.50289C23.0582 10.3425 23.7404 11.0287 24.5769 11.0287H28.3895C29.2246 11.0287 29.9083 10.3425 29.9083 9.50289V5.85453C29.9083 5.01521 29.2246 4.32751 28.3895 4.32751H24.5769ZM29.9228 14.8884H26.9544C27.2359 15.8114 27.3885 16.7847 27.3885 17.7966C27.3885 23.4285 22.6917 27.9963 16.9002 27.9963C11.1101 27.9963 6.41316 23.4285 6.41316 17.7966C6.41316 16.7847 6.56722 15.8114 6.84735 14.8884H3.75042V29.1968C3.75042 29.9378 4.35307 30.5406 5.09045 30.5406H28.5834C29.3214 30.5406 29.9228 29.9378 29.9228 29.1968V14.8884ZM16.9003 10.8363C13.16 10.8363 10.1259 13.7862 10.1259 17.4285C10.1259 21.067 13.16 24.0192 16.9003 24.0192C20.6426 24.0192 23.6768 21.067 23.6768 17.4285C23.6768 13.7861 20.6426 10.8363 16.9003 10.8363Z" fill="white"/>
</svg>
