<svg width="10" height="20" viewBox="0 0 10 20" fill="none" xmlns="http://www.w3.org/2000/svg">
<path d="M0.397611 10.3496H2.482V18.9648C2.482 19.1348 2.61928 19.2727 2.7887 19.2727H6.32285C6.49227 19.2727 6.62955 19.1348 6.62955 18.9648V10.3902H9.02573C9.18153 10.3902 9.31261 10.2728 9.3304 10.1174L9.69433 6.94573C9.70433 6.85847 9.67679 6.77108 9.61864 6.70562C9.56042 6.64009 9.47713 6.60259 9.38972 6.60259H6.62967V4.61442C6.62967 4.01509 6.95109 3.71118 7.5851 3.71118C7.67545 3.71118 9.38972 3.71118 9.38972 3.71118C9.55914 3.71118 9.69641 3.57329 9.69641 3.40326V0.491959C9.69641 0.321865 9.55914 0.184041 9.38972 0.184041H6.90269C6.88515 0.183179 6.8462 0.181763 6.78879 0.181763C6.35726 0.181763 4.85732 0.26681 3.67248 1.36115C2.35969 2.57385 2.54217 4.02587 2.58578 4.27762V6.60253H0.397611C0.22819 6.60253 0.0909119 6.74035 0.0909119 6.91044V10.0416C0.0909119 10.2117 0.22819 10.3496 0.397611 10.3496Z" fill="#B5B5B5"/>
</svg>
