<svg xmlns="http://www.w3.org/2000/svg" xmlns:xlink="http://www.w3.org/1999/xlink"><defs>
<linearGradient id="paint0_linear_0_1607" x1="6.55213" y1="0.621338" x2="23.6492" y2="10.9356" gradientUnits="userSpaceOnUse">
<stop offset="0.248619" stop-color="#654EA3"/>
<stop offset="1" stop-color="#5F4B8B"/>
</linearGradient>

<filter id="filter0_d_0_428" x="0" y="0" width="35" height="26" filterUnits="userSpaceOnUse" color-interpolation-filters="sRGB">
<feFlood flood-opacity="0" result="BackgroundImageFix"/>
<feColorMatrix in="SourceAlpha" type="matrix" values="0 0 0 0 0 0 0 0 0 0 0 0 0 0 0 0 0 0 127 0" result="hardAlpha"/>
<feOffset dy="2"/>
<feGaussianBlur stdDeviation="2"/>
<feColorMatrix type="matrix" values="0 0 0 0 0.00655022 0 0 0 0 0.00655022 0 0 0 0 0.00655022 0 0 0 0.24 0"/>
<feBlend mode="normal" in2="BackgroundImageFix" result="effect1_dropShadow_0_428"/>
<feBlend mode="normal" in="SourceGraphic" in2="effect1_dropShadow_0_428" result="shape"/>
</filter>

<filter id="filter0_d_0_372" x="0" y="0" width="35" height="25.9996" filterUnits="userSpaceOnUse" color-interpolation-filters="sRGB">
<feFlood flood-opacity="0" result="BackgroundImageFix"/>
<feColorMatrix in="SourceAlpha" type="matrix" values="0 0 0 0 0 0 0 0 0 0 0 0 0 0 0 0 0 0 127 0" result="hardAlpha"/>
<feOffset dy="2"/>
<feGaussianBlur stdDeviation="2"/>
<feColorMatrix type="matrix" values="0 0 0 0 0.00655022 0 0 0 0 0.00655022 0 0 0 0 0.00655022 0 0 0 0.24 0"/>
<feBlend mode="normal" in2="BackgroundImageFix" result="effect1_dropShadow_0_372"/>
<feBlend mode="normal" in="SourceGraphic" in2="effect1_dropShadow_0_372" result="shape"/>
</filter>
</defs><symbol id="icon-arrow-down" viewBox="0 0 9 6"><g fill="none">
<path d="M9 0H1.13736H0L4.5 6L9 0Z" fill="#303030"/>
</g></symbol><symbol id="icon-arrow-right" viewBox="0 0 47 18"><g fill="none">
<path d="M37 17L45 9L37 1" stroke="#303030" stroke-width="2"/>
<path d="M45 9H0" stroke="#303030" stroke-width="2"/>
</g></symbol><symbol id="icon-arrow-up" viewBox="0 0 9 6"><g fill="none">
<path d="M-9.53674e-07 6L7.86264 6L9 6L4.5 5.60272e-07L-9.53674e-07 6Z" fill="#303030"/>
</g></symbol><symbol id="icon-calendar" viewBox="0 0 44 44"><g fill="none">
<path d="M40 11.3808C40 10.2903 39.561 9.2445 38.7796 8.47342C37.9982 7.70234 36.9385 7.26915 35.8334 7.26915H31.7317V5.6519C31.7317 5.40958 31.6341 5.17717 31.4605 5.00582C31.2868 4.83447 31.0513 4.73821 30.8058 4.73821C30.5602 4.73821 30.3247 4.83447 30.151 5.00582C29.9774 5.17717 29.8799 5.40958 29.8799 5.6519V7.26915H13.9173V5.6519C13.9173 5.40958 13.8197 5.17717 13.6461 5.00582C13.4725 4.83447 13.237 4.73821 12.9914 4.73821C12.7458 4.73821 12.5103 4.83447 12.3367 5.00582C12.163 5.17717 12.0655 5.40958 12.0655 5.6519V7.26915H7.96374C6.8587 7.26915 5.79892 7.70234 5.01754 8.47342C4.23616 9.2445 3.79718 10.2903 3.79718 11.3808V34.1502C3.79718 35.2406 4.23616 36.2864 5.01754 37.0575C5.79892 37.8286 6.8587 38.2618 7.96374 38.2618H35.8334C36.9385 38.2618 37.9982 37.8286 38.7796 37.0575C39.561 36.2864 40 35.2406 40 34.1502V11.3808ZM38.1482 34.1547C38.1482 34.4547 38.0883 34.7517 37.972 35.0289C37.8556 35.306 37.6851 35.5578 37.4702 35.7699C37.2553 35.982 37.0001 36.1503 36.7192 36.2651C36.4384 36.3799 36.1374 36.439 35.8334 36.439H7.96374C7.65976 36.439 7.35876 36.3799 7.07792 36.2651C6.79708 36.1503 6.54191 35.982 6.32696 35.7699C6.11202 35.5578 5.94151 35.306 5.82519 35.0289C5.70886 34.7517 5.64899 34.4547 5.64899 34.1547V18.2792H38.1482V34.1547ZM38.1482 16.4564H5.64899V11.3808C5.64899 10.775 5.89286 10.194 6.32696 9.76559C6.76106 9.33721 7.34983 9.09655 7.96374 9.09655H12.0701V11.6275C12.0701 11.8698 12.1677 12.1022 12.3413 12.2736C12.515 12.4449 12.7505 12.5412 12.996 12.5412C13.2416 12.5412 13.4771 12.4449 13.6507 12.2736C13.8244 12.1022 13.9219 11.8698 13.9219 11.6275V9.09655H29.8799V11.6275C29.8799 11.8698 29.9774 12.1022 30.151 12.2736C30.3247 12.4449 30.5602 12.5412 30.8058 12.5412C31.0513 12.5412 31.2868 12.4449 31.4605 12.2736C31.6341 12.1022 31.7317 11.8698 31.7317 11.6275V9.09655H35.8334C36.4473 9.09655 37.0361 9.33721 37.4702 9.76559C37.9043 10.194 38.1482 10.775 38.1482 11.3808V16.4564Z" fill="white"/>
<path d="M14.959 21.0432H14.9544C13.924 21.0432 13.0887 21.8674 13.0887 22.8843V22.8888C13.0887 23.9056 13.924 24.7299 14.9544 24.7299H14.959C15.9894 24.7299 16.8247 23.9056 16.8247 22.8888V22.8843C16.8247 21.8674 15.9894 21.0432 14.959 21.0432Z" fill="white"/>
<path d="M19.5885 21.0432H19.5838C18.5534 21.0432 17.7181 21.8674 17.7181 22.8843V22.8888C17.7181 23.9056 18.5534 24.7299 19.5838 24.7299H19.5885C20.6189 24.7299 21.4542 23.9056 21.4542 22.8888V22.8843C21.4542 21.8674 20.6189 21.0432 19.5885 21.0432Z" fill="white"/>
<path d="M24.218 21.0432H24.2134C23.183 21.0432 22.3477 21.8674 22.3477 22.8843V22.8888C22.3477 23.9056 23.183 24.7299 24.2134 24.7299H24.218C25.2484 24.7299 26.0837 23.9056 26.0837 22.8888V22.8843C26.0837 21.8674 25.2484 21.0432 24.218 21.0432Z" fill="white"/>
<path d="M28.8474 21.0432H28.8428C27.8124 21.0432 26.9771 21.8674 26.9771 22.8843V22.8888C26.9771 23.9056 27.8124 24.7299 28.8428 24.7299H28.8474C29.8778 24.7299 30.7131 23.9056 30.7131 22.8888V22.8843C30.7131 21.8674 29.8778 21.0432 28.8474 21.0432Z" fill="white"/>
<path d="M33.477 21.0432H33.4724C32.442 21.0432 31.6067 21.8674 31.6067 22.8843V22.8888C31.6067 23.9056 32.442 24.7299 33.4724 24.7299H33.477C34.5074 24.7299 35.3427 23.9056 35.3427 22.8888V22.8843C35.3427 21.8674 34.5074 21.0432 33.477 21.0432Z" fill="white"/>
<path d="M10.3294 25.6116H10.3248C9.29441 25.6116 8.45911 26.4359 8.45911 27.4527V27.4573C8.45911 28.4741 9.29441 29.2984 10.3248 29.2984H10.3294C11.3598 29.2984 12.1951 28.4741 12.1951 27.4573V27.4527C12.1951 26.4359 11.3598 25.6116 10.3294 25.6116Z" fill="white"/>
<path d="M14.959 25.6116H14.9544C13.924 25.6116 13.0887 26.4359 13.0887 27.4527V27.4573C13.0887 28.4741 13.924 29.2984 14.9544 29.2984H14.959C15.9894 29.2984 16.8247 28.4741 16.8247 27.4573V27.4527C16.8247 26.4359 15.9894 25.6116 14.959 25.6116Z" fill="white"/>
<path d="M19.5885 25.6116H19.5838C18.5534 25.6116 17.7181 26.4359 17.7181 27.4527V27.4573C17.7181 28.4741 18.5534 29.2984 19.5838 29.2984H19.5885C20.6189 29.2984 21.4542 28.4741 21.4542 27.4573V27.4527C21.4542 26.4359 20.6189 25.6116 19.5885 25.6116Z" fill="white"/>
<path d="M24.218 25.6116H24.2134C23.183 25.6116 22.3477 26.4359 22.3477 27.4527V27.4573C22.3477 28.4741 23.183 29.2984 24.2134 29.2984H24.218C25.2484 29.2984 26.0837 28.4741 26.0837 27.4573V27.4527C26.0837 26.4359 25.2484 25.6116 24.218 25.6116Z" fill="white"/>
<path d="M28.8474 25.6116H28.8428C27.8124 25.6116 26.9771 26.4359 26.9771 27.4527V27.4573C26.9771 28.4741 27.8124 29.2984 28.8428 29.2984H28.8474C29.8778 29.2984 30.7131 28.4741 30.7131 27.4573V27.4527C30.7131 26.4359 29.8778 25.6116 28.8474 25.6116Z" fill="white"/>
<path d="M33.477 25.6116H33.4724C32.442 25.6116 31.6067 26.4359 31.6067 27.4527V27.4573C31.6067 28.4741 32.442 29.2984 33.4724 29.2984H33.477C34.5074 29.2984 35.3427 28.4741 35.3427 27.4573V27.4527C35.3427 26.4359 34.5074 25.6116 33.477 25.6116Z" fill="white"/>
<path d="M10.3294 30.1801H10.3248C9.29441 30.1801 8.45911 31.0044 8.45911 32.0212V32.0258C8.45911 33.0426 9.29441 33.8669 10.3248 33.8669H10.3294C11.3598 33.8669 12.1951 33.0426 12.1951 32.0258V32.0212C12.1951 31.0044 11.3598 30.1801 10.3294 30.1801Z" fill="white"/>
<path d="M14.959 30.1801H14.9544C13.924 30.1801 13.0887 31.0044 13.0887 32.0212V32.0258C13.0887 33.0426 13.924 33.8669 14.9544 33.8669H14.959C15.9894 33.8669 16.8247 33.0426 16.8247 32.0258V32.0212C16.8247 31.0044 15.9894 30.1801 14.959 30.1801Z" fill="white"/>
<path d="M19.5885 30.1801H19.5838C18.5534 30.1801 17.7181 31.0044 17.7181 32.0212V32.0258C17.7181 33.0426 18.5534 33.8669 19.5838 33.8669H19.5885C20.6189 33.8669 21.4542 33.0426 21.4542 32.0258V32.0212C21.4542 31.0044 20.6189 30.1801 19.5885 30.1801Z" fill="white"/>
<path d="M24.218 30.1801H24.2134C23.183 30.1801 22.3477 31.0044 22.3477 32.0212V32.0258C22.3477 33.0426 23.183 33.8669 24.2134 33.8669H24.218C25.2484 33.8669 26.0837 33.0426 26.0837 32.0258V32.0212C26.0837 31.0044 25.2484 30.1801 24.218 30.1801Z" fill="white"/>
<path d="M28.8474 30.1801H28.8428C27.8124 30.1801 26.9771 31.0044 26.9771 32.0212V32.0258C26.9771 33.0426 27.8124 33.8669 28.8428 33.8669H28.8474C29.8778 33.8669 30.7131 33.0426 30.7131 32.0258V32.0212C30.7131 31.0044 29.8778 30.1801 28.8474 30.1801Z" fill="white"/>
</g></symbol><symbol id="icon-checked" viewBox="0 0 12 9"><g fill="none">
<path d="M3.8112 7.10138L0.965596 4.30376L-2.60315e-08 5.25308L3.8112 9L12 0.94931L11.0344 2.55925e-08L3.8112 7.10138Z" fill="#515151"/>
</g></symbol><symbol id="icon-chevron-down" viewBox="0 0 22 12"><g fill="none">
<path d="M1 1L11 11L21 1" stroke="#303030"/>
</g></symbol><symbol id="icon-chevron-left-big" viewBox="0 0 35 66"><g fill="none">
<path d="M34 1L2 33L34 65" stroke="#E0E0E0" stroke-width="2"/>
</g></symbol><symbol id="icon-chevron-left" viewBox="0 0 12 22"><g fill="none">
<path d="M11 1L1 11L11 21" stroke="white" stroke-width="0.909091"/>
</g></symbol><symbol id="icon-chevron-right-big" viewBox="0 0 35 66"><g fill="none">
<g opacity="0.15">
<path d="M1 65L33 33L1.00001 0.999999" stroke="#303030" stroke-width="2"/>
</g>
</g></symbol><symbol id="icon-chevron-right" viewBox="0 0 13 22"><g fill="none">
<path d="M1 21L11 11L1 0.999998" stroke="#303030" stroke-width="2"/>
</g></symbol><symbol id="icon-chevron-up" viewBox="0 0 22 12"><g fill="none">
<path d="M21 11L11 1L0.999999 11" stroke="#303030"/>
</g></symbol><symbol id="icon-chevron" viewBox="0 0 12 22"><g fill="none">
<path d="M11 1L1 11L11 21" stroke="white" stroke-width="0.909091"/>
</g></symbol><symbol id="icon-cross" viewBox="0 0 22 22"><g fill="none">
<path fill-rule="evenodd" clip-rule="evenodd" d="M20.8995 3.18199C21.4853 2.59621 21.4853 1.64646 20.8995 1.06068C20.3137 0.474891 19.364 0.474892 18.7782 1.06068L11 8.83882L3.22185 1.0607C2.63607 0.47492 1.68632 0.474919 1.10053 1.0607C0.514745 1.64649 0.514745 2.59623 1.10053 3.18202L8.87868 10.9601L1.10047 18.7383C0.514686 19.3241 0.514686 20.2738 1.10047 20.8596C1.68626 21.4454 2.63601 21.4454 3.2218 20.8596L11 13.0815L18.7782 20.8597C19.364 21.4454 20.3138 21.4454 20.8996 20.8597C21.4853 20.2739 21.4853 19.3241 20.8996 18.7383L13.1213 10.9601L20.8995 3.18199Z" fill="url(#paint0_linear_0_1607)" fill-opacity="0.87"/>

</g></symbol><symbol id="icon-fb-sm" viewBox="0 0 10 20"><g fill="none">
<path d="M0.397611 10.3496H2.482V18.9648C2.482 19.1348 2.61928 19.2727 2.7887 19.2727H6.32285C6.49227 19.2727 6.62955 19.1348 6.62955 18.9648V10.3902H9.02573C9.18153 10.3902 9.31261 10.2728 9.3304 10.1174L9.69433 6.94573C9.70433 6.85847 9.67679 6.77108 9.61864 6.70562C9.56042 6.64009 9.47713 6.60259 9.38972 6.60259H6.62967V4.61442C6.62967 4.01509 6.95109 3.71118 7.5851 3.71118C7.67545 3.71118 9.38972 3.71118 9.38972 3.71118C9.55914 3.71118 9.69641 3.57329 9.69641 3.40326V0.491959C9.69641 0.321865 9.55914 0.184041 9.38972 0.184041H6.90269C6.88515 0.183179 6.8462 0.181763 6.78879 0.181763C6.35726 0.181763 4.85732 0.26681 3.67248 1.36115C2.35969 2.57385 2.54217 4.02587 2.58578 4.27762V6.60253H0.397611C0.22819 6.60253 0.0909119 6.74035 0.0909119 6.91044V10.0416C0.0909119 10.2117 0.22819 10.3496 0.397611 10.3496Z" fill="#B5B5B5"/>
</g></symbol><symbol id="icon-fb" viewBox="0 0 18 35"><g fill="none">
<path d="M0.562281 18.641H4.38366V34.4355C4.38366 34.7473 4.63533 35 4.94594 35H11.4252C11.7358 35 11.9875 34.7473 11.9875 34.4355V18.7154H16.3805C16.6661 18.7154 16.9065 18.5002 16.9391 18.2154L17.6063 12.4006C17.6246 12.2406 17.5741 12.0804 17.4675 11.9604C17.3608 11.8403 17.2081 11.7715 17.0478 11.7715H11.9877V8.12655C11.9877 7.02777 12.577 6.4706 13.7393 6.4706C13.905 6.4706 17.0478 6.4706 17.0478 6.4706C17.3584 6.4706 17.6101 6.21781 17.6101 5.90608V0.568694C17.6101 0.256855 17.3584 0.00417742 17.0478 0.00417742H12.4883C12.4561 0.00259677 12.3847 0 12.2794 0C11.4883 0 8.73841 0.155919 6.56621 2.16221C4.15942 4.3855 4.49398 7.04753 4.57393 7.50908V11.7714H0.562281C0.251677 11.7714 0 12.0241 0 12.3359V18.0764C0 18.3882 0.251677 18.641 0.562281 18.641Z" fill="white"/>
</g></symbol><symbol id="icon-flag_ru" viewBox="0 0 35 26"><g fill="none">
<g filter="url(#filter0_d_0_428)">
<path d="M30.9999 7.99989H4V2.47369C4 2.21211 4.20846 2 4.46554 2H30.5345C30.7915 2 31 2.21211 31 2.47369L30.9999 7.99989Z" fill="#F5F5F5"/>
<path d="M30.5344 20H4.46554C4.20846 20 4 19.7879 4 19.5263V14.0002H30.9999V19.5263C30.9999 19.788 30.7915 20 30.5344 20Z" fill="#FF4B55"/>
<path d="M30.9999 7.99939H4V13.9989H30.9999V7.99939Z" fill="#41479B"/>
</g>

</g></symbol><symbol id="icon-flag_us" viewBox="0 0 35 26"><g fill="none">
<g filter="url(#filter0_d_0_372)">
<path d="M30.5344 19.9996H4.46554C4.20846 19.9996 4 19.7875 4 19.5259V2.4737C4 2.21211 4.20846 2 4.46554 2H30.5345C30.7915 2 31 2.21211 31 2.4737V19.5259C30.9999 19.7876 30.7915 19.9996 30.5344 19.9996Z" fill="#F5F5F5"/>
<path d="M30.9999 3.38465H4V2.4737C4 2.21211 4.20846 2 4.46554 2H30.5345C30.7915 2 31 2.21211 31 2.4737L30.9999 3.38465Z" fill="#FF4B55"/>
<path d="M30.9999 7.53839H4V8.92299H30.9999V7.53839Z" fill="#FF4B55"/>
<path d="M30.9999 4.76923H4V6.15382H30.9999V4.76923Z" fill="#FF4B55"/>
<path d="M30.9999 11.6922H4.46554C4.20846 11.6922 4 11.4801 4 11.2185V10.3076H30.9999V11.6922Z" fill="#FF4B55"/>
<path d="M30.9999 15.8472H4V17.2318H30.9999V15.8472Z" fill="#FF4B55"/>
<path d="M30.5344 19.9997H4.46554C4.20846 19.9997 4 19.7875 4 19.526V18.6151H30.9999V19.526C30.9999 19.7876 30.7915 19.9997 30.5344 19.9997Z" fill="#FF4B55"/>
<path d="M30.9999 13.0767H4V14.4613H30.9999V13.0767Z" fill="#FF4B55"/>
<path d="M16.1034 2.00201H4.46554C4.20846 2.00201 4 2.21407 4 2.47566V11.2203C4 11.4819 4.20846 11.694 4.46554 11.694H16.1035C16.3605 11.694 16.569 11.4819 16.569 11.2203V2.47566C16.569 2.21407 16.3605 2.00201 16.1034 2.00201Z" fill="#41479B"/>
<path d="M5.30752 3.08663L5.41056 3.40107L5.7363 3.40359C5.77849 3.40396 5.79594 3.4587 5.76204 3.48418L5.5 3.68111L5.5983 3.9971C5.61106 4.03799 5.56523 4.0719 5.5309 4.0469L5.26591 3.85421L5.00092 4.04695C4.96659 4.0719 4.92087 4.03805 4.93353 3.99716L5.03182 3.68116L4.76979 3.48424C4.73588 3.4587 4.75333 3.40402 4.79552 3.40364L5.12126 3.40112L5.2243 3.08668C5.23759 3.0459 5.29412 3.0459 5.30752 3.08663Z" fill="#F5F5F5"/>
<path d="M5.30709 4.73179L5.41013 5.04623L5.73587 5.04875C5.77806 5.04913 5.79552 5.10386 5.76161 5.12935L5.49957 5.32627L5.59787 5.64227C5.61063 5.68315 5.5648 5.71707 5.53047 5.69206L5.26548 5.49937L5.0005 5.69211C4.96617 5.71707 4.92044 5.68321 4.9331 5.64232L5.0314 5.32633L4.76936 5.1294C4.73545 5.10386 4.75291 5.04918 4.7951 5.04881L5.12083 5.04628L5.22388 4.73185C5.23717 4.69112 5.2937 4.69112 5.30709 4.73179Z" fill="#F5F5F5"/>
<path d="M5.30709 6.37596L5.41013 6.69039L5.73587 6.69292C5.77806 6.69329 5.79552 6.74802 5.76161 6.77351L5.49957 6.97044L5.59787 7.28643C5.61063 7.32732 5.5648 7.36123 5.53047 7.33623L5.26548 7.14354L5.0005 7.33628C4.96617 7.36123 4.92044 7.32737 4.9331 7.28648L5.0314 6.97049L4.76936 6.77356C4.73545 6.74802 4.75291 6.69335 4.7951 6.69297L5.12083 6.69045L5.22388 6.37601C5.23717 6.33528 5.2937 6.33528 5.30709 6.37596Z" fill="#F5F5F5"/>
<path d="M5.30709 8.02157L5.41013 8.336L5.73587 8.33853C5.77806 8.3389 5.79552 8.39363 5.76161 8.41912L5.49957 8.61605L5.59787 8.93204C5.61063 8.97293 5.5648 9.00684 5.53047 8.98184L5.26548 8.78915L5.0005 8.98189C4.96617 9.00684 4.92044 8.97298 4.9331 8.93209L5.0314 8.6161L4.76936 8.41917C4.73545 8.39363 4.75291 8.33895 4.7951 8.33858L5.12083 8.33606L5.22388 8.02162C5.23717 7.98084 5.2937 7.98084 5.30709 8.02157Z" fill="#F5F5F5"/>
<path d="M5.30709 9.66583L5.41013 9.98027L5.73587 9.98279C5.77806 9.98317 5.79552 10.0379 5.76161 10.0634L5.49957 10.2603L5.59787 10.5763C5.61063 10.6172 5.5648 10.6511 5.53047 10.6261L5.26548 10.4334L5.0005 10.6262C4.96617 10.6511 4.92044 10.6172 4.9331 10.5764L5.0314 10.2604L4.76936 10.0634C4.73545 10.0379 4.75291 9.98322 4.7951 9.98285L5.12083 9.98032L5.22388 9.66589C5.23717 9.62505 5.2937 9.62505 5.30709 9.66583Z" fill="#F5F5F5"/>
<path d="M6.56185 3.89342L6.6649 4.20786L6.99064 4.21038C7.03282 4.21075 7.05028 4.26549 7.01637 4.29097L6.75433 4.4879L6.85263 4.80389C6.86539 4.84478 6.81957 4.87869 6.78524 4.85369L6.52025 4.66095L6.25526 4.85369C6.22093 4.87864 6.17521 4.84478 6.18786 4.80389L6.28616 4.4879L6.02412 4.29097C5.99021 4.26543 6.00767 4.21075 6.04986 4.21038L6.3756 4.20786L6.47864 3.89342C6.49187 3.85275 6.54851 3.85275 6.56185 3.89342Z" fill="#F5F5F5"/>
<path d="M6.56185 5.53903L6.6649 5.85347L6.99064 5.85599C7.03282 5.85636 7.05028 5.9111 7.01637 5.93658L6.75433 6.13351L6.85263 6.4495C6.86539 6.49039 6.81957 6.5243 6.78524 6.4993L6.52025 6.30656L6.25526 6.4993C6.22093 6.52425 6.17521 6.49044 6.18786 6.4495L6.28616 6.13351L6.02412 5.93658C5.99021 5.91104 6.00767 5.85636 6.04986 5.85599L6.3756 5.85347L6.47864 5.53903C6.49187 5.4983 6.54851 5.4983 6.56185 5.53903Z" fill="#F5F5F5"/>
<path d="M6.56185 7.18326L6.6649 7.49769L6.99064 7.50021C7.03282 7.50059 7.05028 7.55532 7.01637 7.58081L6.75433 7.77774L6.85263 8.09373C6.86539 8.13462 6.81957 8.16853 6.78524 8.14352L6.52025 7.95078L6.25526 8.14352C6.22093 8.16848 6.17521 8.13462 6.18786 8.09373L6.28616 7.77774L6.02412 7.58081C5.99021 7.55527 6.00767 7.50059 6.04986 7.50021L6.3756 7.49769L6.47864 7.18326C6.49187 7.14253 6.54851 7.14253 6.56185 7.18326Z" fill="#F5F5F5"/>
<path d="M6.56185 8.82872L6.6649 9.14316L6.99064 9.14568C7.03282 9.14606 7.05028 9.20079 7.01637 9.22628L6.75433 9.4232L6.85263 9.7392C6.86539 9.78008 6.81957 9.814 6.78524 9.78899L6.52025 9.59625L6.25526 9.78899C6.22093 9.81394 6.17521 9.78008 6.18786 9.7392L6.28616 9.4232L6.02412 9.22628C5.99021 9.20074 6.00767 9.14606 6.04986 9.14568L6.3756 9.14316L6.47864 8.82872C6.49187 8.78805 6.54851 8.78805 6.56185 8.82872Z" fill="#F5F5F5"/>
<path d="M7.81661 3.08627L7.91966 3.40071L8.2454 3.40323C8.28758 3.40361 8.30504 3.45834 8.27113 3.48382L8.00909 3.68075L8.10739 3.99674C8.12015 4.03763 8.07433 4.07154 8.04 4.04654L7.77501 3.8538L7.51002 4.04654C7.47569 4.07149 7.42997 4.03763 7.44262 3.99674L7.54092 3.68075L7.27888 3.48382C7.24497 3.45828 7.26243 3.40361 7.30462 3.40323L7.63036 3.40071L7.7334 3.08627C7.74669 3.04554 7.80327 3.04554 7.81661 3.08627Z" fill="#F5F5F5"/>
<path d="M7.81661 4.7318L7.91966 5.04624L8.2454 5.04876C8.28758 5.04913 8.30504 5.10387 8.27113 5.12935L8.00909 5.32628L8.10739 5.64227C8.12015 5.68316 8.07433 5.71707 8.04 5.69207L7.77501 5.49933L7.51002 5.69207C7.47569 5.71702 7.42997 5.68316 7.44262 5.64227L7.54092 5.32628L7.27888 5.12935C7.24497 5.10381 7.26243 5.04913 7.30462 5.04876L7.63036 5.04624L7.7334 4.7318C7.74669 4.69113 7.80327 4.69113 7.81661 4.7318Z" fill="#F5F5F5"/>
<path d="M7.81661 6.37596L7.91966 6.6904L8.2454 6.69292C8.28758 6.6933 8.30504 6.74803 8.27113 6.77352L8.00909 6.97044L8.10739 7.28644C8.12015 7.32733 8.07433 7.36124 8.04 7.33623L7.77501 7.14349L7.51002 7.33623C7.47569 7.36118 7.42997 7.32733 7.44262 7.28644L7.54092 6.97044L7.27888 6.77352C7.24497 6.74798 7.26243 6.6933 7.30462 6.69292L7.63036 6.6904L7.7334 6.37596C7.74669 6.33529 7.80327 6.33529 7.81661 6.37596Z" fill="#F5F5F5"/>
<path d="M7.81661 8.02157L7.91966 8.33601L8.2454 8.33853C8.28758 8.33891 8.30504 8.39364 8.27113 8.41913L8.00909 8.61605L8.10739 8.93205C8.12015 8.97293 8.07433 9.00685 8.04 8.98184L7.77501 8.7891L7.51002 8.98184C7.47569 9.00679 7.42997 8.97293 7.44262 8.93205L7.54092 8.61605L7.27888 8.41913C7.24497 8.39359 7.26243 8.33891 7.30462 8.33853L7.63036 8.33601L7.7334 8.02157C7.74669 7.98085 7.80327 7.98085 7.81661 8.02157Z" fill="#F5F5F5"/>
<path d="M7.81661 9.66584L7.91966 9.98028L8.2454 9.9828C8.28758 9.98317 8.30504 10.0379 8.27113 10.0634L8.00909 10.2603L8.10739 10.5763C8.12015 10.6172 8.07433 10.6511 8.04 10.6261L7.77501 10.4334L7.51002 10.6261C7.47569 10.6511 7.42997 10.6172 7.44262 10.5763L7.54092 10.2603L7.27888 10.0634C7.24497 10.0379 7.26243 9.98317 7.30462 9.9828L7.63036 9.98028L7.7334 9.66584C7.74669 9.62506 7.80327 9.62506 7.81661 9.66584Z" fill="#F5F5F5"/>
<path d="M9.07125 3.89342L9.1743 4.20786L9.50003 4.21038C9.54222 4.21075 9.55968 4.26549 9.52577 4.29097L9.26373 4.4879L9.36203 4.80389C9.37479 4.84478 9.32896 4.87869 9.29463 4.85369L9.02964 4.66095L8.76466 4.85369C8.73033 4.87864 8.6846 4.84478 8.69726 4.80389L8.79556 4.4879L8.53352 4.29097C8.49961 4.26543 8.51707 4.21075 8.55926 4.21038L8.88499 4.20786L8.98804 3.89342C9.00127 3.85275 9.05791 3.85275 9.07125 3.89342Z" fill="#F5F5F5"/>
<path d="M9.07125 5.53903L9.1743 5.85347L9.50003 5.85599C9.54222 5.85636 9.55968 5.9111 9.52577 5.93658L9.26373 6.13351L9.36203 6.4495C9.37479 6.49039 9.32896 6.5243 9.29463 6.4993L9.02964 6.30656L8.76466 6.4993C8.73033 6.52425 8.6846 6.49044 8.69726 6.4495L8.79556 6.13351L8.53352 5.93658C8.49961 5.91104 8.51707 5.85636 8.55926 5.85599L8.88499 5.85347L8.98804 5.53903C9.00127 5.4983 9.05791 5.4983 9.07125 5.53903Z" fill="#F5F5F5"/>
<path d="M9.07125 7.18326L9.1743 7.49769L9.50003 7.50021C9.54222 7.50059 9.55968 7.55532 9.52577 7.58081L9.26373 7.77774L9.36203 8.09373C9.37479 8.13462 9.32896 8.16853 9.29463 8.14352L9.02964 7.95078L8.76466 8.14352C8.73033 8.16848 8.6846 8.13462 8.69726 8.09373L8.79556 7.77774L8.53352 7.58081C8.49961 7.55527 8.51707 7.50059 8.55926 7.50021L8.88499 7.49769L8.98804 7.18326C9.00127 7.14253 9.05791 7.14253 9.07125 7.18326Z" fill="#F5F5F5"/>
<path d="M9.07125 8.82872L9.1743 9.14316L9.50003 9.14568C9.54222 9.14606 9.55968 9.20079 9.52577 9.22628L9.26373 9.4232L9.36203 9.7392C9.37479 9.78008 9.32896 9.814 9.29463 9.78899L9.02964 9.59625L8.76466 9.78899C8.73033 9.81394 8.6846 9.78008 8.69726 9.7392L8.79556 9.4232L8.53352 9.22628C8.49961 9.20074 8.51707 9.14606 8.55926 9.14568L8.88499 9.14316L8.98804 8.82872C9.00127 8.78805 9.05791 8.78805 9.07125 8.82872Z" fill="#F5F5F5"/>
<path d="M10.3262 3.08627L10.4292 3.40071L10.755 3.40323C10.7972 3.40361 10.8146 3.45834 10.7807 3.48382L10.5187 3.68075L10.617 3.99674C10.6297 4.03763 10.5839 4.07154 10.5496 4.04654L10.2845 3.8538L10.0195 4.04654C9.98521 4.07149 9.93949 4.03763 9.95214 3.99674L10.0504 3.68075L9.7884 3.48382C9.7545 3.45828 9.77195 3.40361 9.81414 3.40323L10.1399 3.40071L10.2429 3.08627C10.2563 3.04554 10.3128 3.04554 10.3262 3.08627Z" fill="#F5F5F5"/>
<path d="M10.3262 4.7318L10.4292 5.04624L10.755 5.04876C10.7972 5.04913 10.8146 5.10387 10.7807 5.12935L10.5187 5.32628L10.617 5.64227C10.6297 5.68316 10.5839 5.71707 10.5496 5.69207L10.2845 5.49933L10.0195 5.69207C9.98521 5.71702 9.93949 5.68316 9.95214 5.64227L10.0504 5.32628L9.7884 5.12935C9.7545 5.10381 9.77195 5.04913 9.81414 5.04876L10.1399 5.04624L10.2429 4.7318C10.2563 4.69113 10.3128 4.69113 10.3262 4.7318Z" fill="#F5F5F5"/>
<path d="M10.3262 6.37596L10.4292 6.6904L10.755 6.69292C10.7972 6.6933 10.8146 6.74803 10.7807 6.77352L10.5187 6.97044L10.617 7.28644C10.6297 7.32733 10.5839 7.36124 10.5496 7.33623L10.2845 7.14349L10.0195 7.33623C9.98521 7.36118 9.93949 7.32733 9.95214 7.28644L10.0504 6.97044L9.7884 6.77352C9.7545 6.74798 9.77195 6.6933 9.81414 6.69292L10.1399 6.6904L10.2429 6.37596C10.2563 6.33529 10.3128 6.33529 10.3262 6.37596Z" fill="#F5F5F5"/>
<path d="M10.3262 8.02157L10.4292 8.33601L10.755 8.33853C10.7972 8.33891 10.8146 8.39364 10.7807 8.41913L10.5187 8.61605L10.617 8.93205C10.6297 8.97293 10.5839 9.00685 10.5496 8.98184L10.2845 8.7891L10.0195 8.98184C9.98521 9.00679 9.93949 8.97293 9.95214 8.93205L10.0504 8.61605L9.7884 8.41913C9.7545 8.39359 9.77195 8.33891 9.81414 8.33853L10.1399 8.33601L10.2429 8.02157C10.2563 7.98085 10.3128 7.98085 10.3262 8.02157Z" fill="#F5F5F5"/>
<path d="M10.3262 9.66584L10.4292 9.98028L10.755 9.9828C10.7972 9.98317 10.8146 10.0379 10.7807 10.0634L10.5187 10.2603L10.617 10.5763C10.6297 10.6172 10.5839 10.6511 10.5496 10.6261L10.2845 10.4334L10.0195 10.6261C9.98521 10.6511 9.93949 10.6172 9.95214 10.5763L10.0504 10.2603L9.7884 10.0634C9.7545 10.0379 9.77195 9.98317 9.81414 9.9828L10.1399 9.98028L10.2429 9.66584C10.2563 9.62506 10.3128 9.62506 10.3262 9.66584Z" fill="#F5F5F5"/>
<path d="M11.5808 3.89342L11.6838 4.20786L12.0096 4.21038C12.0517 4.21075 12.0692 4.26549 12.0353 4.29097L11.7733 4.4879L11.8716 4.80389C11.8843 4.84478 11.8385 4.87869 11.8042 4.85369L11.5392 4.66095L11.2742 4.85369C11.2398 4.87864 11.1941 4.84478 11.2068 4.80389L11.3051 4.4879L11.043 4.29097C11.0091 4.26543 11.0266 4.21075 11.0688 4.21038L11.3945 4.20786L11.4976 3.89342C11.5109 3.85275 11.5674 3.85275 11.5808 3.89342Z" fill="#F5F5F5"/>
<path d="M11.5808 5.53903L11.6838 5.85347L12.0096 5.85599C12.0517 5.85636 12.0692 5.9111 12.0353 5.93658L11.7733 6.13351L11.8716 6.4495C11.8843 6.49039 11.8385 6.5243 11.8042 6.4993L11.5392 6.30656L11.2742 6.4993C11.2398 6.52425 11.1941 6.49044 11.2068 6.4495L11.3051 6.13351L11.043 5.93658C11.0091 5.91104 11.0266 5.85636 11.0688 5.85599L11.3945 5.85347L11.4976 5.53903C11.5109 5.4983 11.5674 5.4983 11.5808 5.53903Z" fill="#F5F5F5"/>
<path d="M11.5808 7.18326L11.6838 7.49769L12.0096 7.50021C12.0517 7.50059 12.0692 7.55532 12.0353 7.58081L11.7733 7.77774L11.8716 8.09373C11.8843 8.13462 11.8385 8.16853 11.8042 8.14352L11.5392 7.95078L11.2742 8.14352C11.2398 8.16848 11.1941 8.13462 11.2068 8.09373L11.3051 7.77774L11.043 7.58081C11.0091 7.55527 11.0266 7.50059 11.0688 7.50021L11.3945 7.49769L11.4976 7.18326C11.5109 7.14253 11.5674 7.14253 11.5808 7.18326Z" fill="#F5F5F5"/>
<path d="M11.5808 8.82872L11.6838 9.14316L12.0096 9.14568C12.0517 9.14606 12.0692 9.20079 12.0353 9.22628L11.7733 9.4232L11.8716 9.7392C11.8843 9.78008 11.8385 9.814 11.8042 9.78899L11.5392 9.59625L11.2742 9.78899C11.2398 9.81394 11.1941 9.78008 11.2068 9.7392L11.3051 9.4232L11.043 9.22628C11.0091 9.20074 11.0266 9.14606 11.0688 9.14568L11.3945 9.14316L11.4976 8.82872C11.5109 8.78805 11.5674 8.78805 11.5808 8.82872Z" fill="#F5F5F5"/>
<path d="M12.8352 3.08627L12.9382 3.40071L13.264 3.40323C13.3061 3.40361 13.3236 3.45834 13.2897 3.48382L13.0276 3.68075L13.1259 3.99674C13.1387 4.03763 13.0929 4.07154 13.0586 4.04654L12.7936 3.8538L12.5286 4.04654C12.4942 4.07149 12.4485 4.03763 12.4612 3.99674L12.5595 3.68075L12.2974 3.48382C12.2635 3.45828 12.281 3.40361 12.3232 3.40323L12.6489 3.40071L12.752 3.08627C12.7652 3.04554 12.8218 3.04554 12.8352 3.08627Z" fill="#F5F5F5"/>
<path d="M12.8352 4.7318L12.9382 5.04624L13.264 5.04876C13.3061 5.04913 13.3236 5.10387 13.2897 5.12935L13.0276 5.32628L13.1259 5.64227C13.1387 5.68316 13.0929 5.71707 13.0586 5.69207L12.7936 5.49933L12.5286 5.69207C12.4942 5.71702 12.4485 5.68316 12.4612 5.64227L12.5595 5.32628L12.2974 5.12935C12.2635 5.10381 12.281 5.04913 12.3232 5.04876L12.6489 5.04624L12.752 4.7318C12.7652 4.69113 12.8218 4.69113 12.8352 4.7318Z" fill="#F5F5F5"/>
<path d="M12.8352 6.37596L12.9382 6.6904L13.264 6.69292C13.3061 6.6933 13.3236 6.74803 13.2897 6.77352L13.0276 6.97044L13.1259 7.28644C13.1387 7.32733 13.0929 7.36124 13.0586 7.33623L12.7936 7.14349L12.5286 7.33623C12.4942 7.36118 12.4485 7.32733 12.4612 7.28644L12.5595 6.97044L12.2974 6.77352C12.2635 6.74798 12.281 6.6933 12.3232 6.69292L12.6489 6.6904L12.752 6.37596C12.7652 6.33529 12.8218 6.33529 12.8352 6.37596Z" fill="#F5F5F5"/>
<path d="M12.8352 8.02157L12.9382 8.33601L13.264 8.33853C13.3061 8.33891 13.3236 8.39364 13.2897 8.41913L13.0276 8.61605L13.1259 8.93205C13.1387 8.97293 13.0929 9.00685 13.0586 8.98184L12.7936 8.7891L12.5286 8.98184C12.4942 9.00679 12.4485 8.97293 12.4612 8.93205L12.5595 8.61605L12.2974 8.41913C12.2635 8.39359 12.281 8.33891 12.3232 8.33853L12.6489 8.33601L12.752 8.02157C12.7652 7.98085 12.8218 7.98085 12.8352 8.02157Z" fill="#F5F5F5"/>
<path d="M12.8352 9.66584L12.9382 9.98028L13.264 9.9828C13.3061 9.98317 13.3236 10.0379 13.2897 10.0634L13.0276 10.2603L13.1259 10.5763C13.1387 10.6172 13.0929 10.6511 13.0586 10.6261L12.7936 10.4334L12.5286 10.6261C12.4942 10.6511 12.4485 10.6172 12.4612 10.5763L12.5595 10.2603L12.2974 10.0634C12.2635 10.0379 12.281 9.98317 12.3232 9.9828L12.6489 9.98028L12.752 9.66584C12.7652 9.62506 12.8218 9.62506 12.8352 9.66584Z" fill="#F5F5F5"/>
<path d="M14.0901 3.89342L14.1931 4.20786L14.5188 4.21038C14.561 4.21075 14.5785 4.26549 14.5446 4.29097L14.2825 4.4879L14.3808 4.80389C14.3936 4.84478 14.3478 4.87869 14.3134 4.85369L14.0484 4.66095L13.7835 4.85369C13.7491 4.87864 13.7034 4.84478 13.7161 4.80389L13.8144 4.4879L13.5523 4.29097C13.5184 4.26543 13.5359 4.21075 13.5781 4.21038L13.9038 4.20786L14.0068 3.89342C14.0201 3.85275 14.0768 3.85275 14.0901 3.89342Z" fill="#F5F5F5"/>
<path d="M14.0901 5.53903L14.1931 5.85347L14.5188 5.85599C14.561 5.85636 14.5785 5.9111 14.5446 5.93658L14.2825 6.13351L14.3808 6.4495C14.3936 6.49039 14.3478 6.5243 14.3134 6.4993L14.0484 6.30656L13.7835 6.4993C13.7491 6.52425 13.7034 6.49044 13.7161 6.4495L13.8144 6.13351L13.5523 5.93658C13.5184 5.91104 13.5359 5.85636 13.5781 5.85599L13.9038 5.85347L14.0068 5.53903C14.0201 5.4983 14.0768 5.4983 14.0901 5.53903Z" fill="#F5F5F5"/>
<path d="M14.0901 7.18326L14.1931 7.49769L14.5188 7.50021C14.561 7.50059 14.5785 7.55532 14.5446 7.58081L14.2825 7.77774L14.3808 8.09373C14.3936 8.13462 14.3478 8.16853 14.3134 8.14352L14.0484 7.95078L13.7835 8.14352C13.7491 8.16848 13.7034 8.13462 13.7161 8.09373L13.8144 7.77774L13.5523 7.58081C13.5184 7.55527 13.5359 7.50059 13.5781 7.50021L13.9038 7.49769L14.0068 7.18326C14.0201 7.14253 14.0768 7.14253 14.0901 7.18326Z" fill="#F5F5F5"/>
<path d="M14.0901 8.82872L14.1931 9.14316L14.5188 9.14568C14.561 9.14606 14.5785 9.20079 14.5446 9.22628L14.2825 9.4232L14.3808 9.7392C14.3936 9.78008 14.3478 9.814 14.3134 9.78899L14.0484 9.59625L13.7835 9.78899C13.7491 9.81394 13.7034 9.78008 13.7161 9.7392L13.8144 9.4232L13.5523 9.22628C13.5184 9.20074 13.5359 9.14606 13.5781 9.14568L13.9038 9.14316L14.0068 8.82872C14.0201 8.78805 14.0768 8.78805 14.0901 8.82872Z" fill="#F5F5F5"/>
<path d="M15.3451 3.08627L15.4481 3.40071L15.7738 3.40323C15.816 3.40361 15.8335 3.45834 15.7996 3.48382L15.5375 3.68075L15.6358 3.99674C15.6486 4.03763 15.6028 4.07154 15.5684 4.04654L15.3034 3.8538L15.0385 4.04654C15.0041 4.07149 14.9584 4.03763 14.9711 3.99674L15.0694 3.68075L14.8073 3.48382C14.7734 3.45828 14.7909 3.40361 14.8331 3.40323L15.1588 3.40071L15.2618 3.08627C15.2751 3.04554 15.3317 3.04554 15.3451 3.08627Z" fill="#F5F5F5"/>
<path d="M15.3451 4.7318L15.4481 5.04624L15.7738 5.04876C15.816 5.04913 15.8335 5.10387 15.7996 5.12935L15.5375 5.32628L15.6358 5.64227C15.6486 5.68316 15.6028 5.71707 15.5684 5.69207L15.3034 5.49933L15.0385 5.69207C15.0041 5.71702 14.9584 5.68316 14.9711 5.64227L15.0694 5.32628L14.8073 5.12935C14.7734 5.10381 14.7909 5.04913 14.8331 5.04876L15.1588 5.04624L15.2618 4.7318C15.2751 4.69113 15.3317 4.69113 15.3451 4.7318Z" fill="#F5F5F5"/>
<path d="M15.3451 6.37596L15.4481 6.6904L15.7738 6.69292C15.816 6.6933 15.8335 6.74803 15.7996 6.77352L15.5375 6.97044L15.6358 7.28644C15.6486 7.32733 15.6028 7.36124 15.5684 7.33623L15.3034 7.14349L15.0385 7.33623C15.0041 7.36118 14.9584 7.32733 14.9711 7.28644L15.0694 6.97044L14.8073 6.77352C14.7734 6.74798 14.7909 6.6933 14.8331 6.69292L15.1588 6.6904L15.2618 6.37596C15.2751 6.33529 15.3317 6.33529 15.3451 6.37596Z" fill="#F5F5F5"/>
<path d="M15.3451 8.02157L15.4481 8.33601L15.7738 8.33853C15.816 8.33891 15.8335 8.39364 15.7996 8.41913L15.5375 8.61605L15.6358 8.93205C15.6486 8.97293 15.6028 9.00685 15.5684 8.98184L15.3034 8.7891L15.0385 8.98184C15.0041 9.00679 14.9584 8.97293 14.9711 8.93205L15.0694 8.61605L14.8073 8.41913C14.7734 8.39359 14.7909 8.33891 14.8331 8.33853L15.1588 8.33601L15.2618 8.02157C15.2751 7.98085 15.3317 7.98085 15.3451 8.02157Z" fill="#F5F5F5"/>
<path d="M15.3451 9.66584L15.4481 9.98028L15.7738 9.9828C15.816 9.98317 15.8335 10.0379 15.7996 10.0634L15.5375 10.2603L15.6358 10.5763C15.6486 10.6172 15.6028 10.6511 15.5684 10.6261L15.3034 10.4334L15.0385 10.6261C15.0041 10.6511 14.9584 10.6172 14.9711 10.5763L15.0694 10.2603L14.8073 10.0634C14.7734 10.0379 14.7909 9.98317 14.8331 9.9828L15.1588 9.98028L15.2618 9.66584C15.2751 9.62506 15.3317 9.62506 15.3451 9.66584Z" fill="#F5F5F5"/>
</g>

</g></symbol><symbol id="icon-insta-sm" viewBox="0 0 20 19"><g fill="none">
<path d="M3.09006 0.490479H16.7675C18.0669 0.490479 19.1292 1.55735 19.1292 2.86194V16.5937C19.1292 17.8979 18.0669 18.9641 16.7675 18.9641H3.09006C1.79064 18.9641 0.727249 17.8979 0.727249 16.5937V2.86194C0.727249 1.55735 1.79064 0.490479 3.09006 0.490479ZM14.1328 2.54226C13.6766 2.54226 13.3044 2.91736 13.3044 3.37518V5.36519C13.3044 5.82319 13.6766 6.19743 14.1328 6.19743H16.2124C16.6679 6.19743 17.0409 5.82319 17.0409 5.36519V3.37518C17.0409 2.91736 16.6679 2.54226 16.2124 2.54226H14.1328ZM17.0488 8.30272H15.4297C15.5832 8.80617 15.6664 9.33708 15.6664 9.88906C15.6664 12.961 13.1045 15.4525 9.94552 15.4525C6.78731 15.4525 4.22534 12.961 4.22534 9.88906C4.22534 9.33708 4.30937 8.80617 4.46217 8.30272H2.77293V16.1073C2.77293 16.5115 3.10165 16.8403 3.50386 16.8403H16.3182C16.7207 16.8403 17.0488 16.5115 17.0488 16.1073V8.30272ZM9.94558 6.09249C7.90542 6.09249 6.25047 7.70155 6.25047 9.68823C6.25047 11.6729 7.90542 13.2832 9.94558 13.2832C11.9868 13.2832 13.6419 11.6729 13.6419 9.68823C13.6419 7.70148 11.9868 6.09249 9.94558 6.09249Z" fill="#B5B5B5"/>
</g></symbol><symbol id="icon-insta" viewBox="0 0 34 35"><g fill="none">
<path d="M4.33182 0.565918H29.4071C31.7894 0.565918 33.7369 2.52185 33.7369 4.9136V30.0885C33.7369 32.4796 31.7894 34.4342 29.4071 34.4342H4.33182C1.94954 34.4342 0 32.4795 0 30.0885V4.9136C0 2.52185 1.94954 0.565918 4.33182 0.565918ZM24.5769 4.32751C23.7404 4.32751 23.0582 5.01521 23.0582 5.85453V9.50289C23.0582 10.3425 23.7404 11.0287 24.5769 11.0287H28.3895C29.2246 11.0287 29.9083 10.3425 29.9083 9.50289V5.85453C29.9083 5.01521 29.2246 4.32751 28.3895 4.32751H24.5769ZM29.9228 14.8884H26.9544C27.2359 15.8114 27.3885 16.7847 27.3885 17.7966C27.3885 23.4285 22.6917 27.9963 16.9002 27.9963C11.1101 27.9963 6.41316 23.4285 6.41316 17.7966C6.41316 16.7847 6.56722 15.8114 6.84735 14.8884H3.75042V29.1968C3.75042 29.9378 4.35307 30.5406 5.09045 30.5406H28.5834C29.3214 30.5406 29.9228 29.9378 29.9228 29.1968V14.8884ZM16.9003 10.8363C13.16 10.8363 10.1259 13.7862 10.1259 17.4285C10.1259 21.067 13.16 24.0192 16.9003 24.0192C20.6426 24.0192 23.6768 21.067 23.6768 17.4285C23.6768 13.7861 20.6426 10.8363 16.9003 10.8363Z" fill="white"/>
</g></symbol><symbol id="icon-location" viewBox="0 0 28 35"><g fill="none">
<path d="M0.0863762 33.7672L4.89199 24.0068C4.98789 23.812 5.15406 23.6628 5.35334 23.5814L7.74408 22.5595L3.60158 15.8932C3.59168 15.8772 3.58235 15.861 3.57345 15.8445C2.74987 14.301 2.33224 12.6331 2.33224 10.8874C2.33224 7.95075 3.53159 5.19765 5.70938 3.13532C7.88682 1.07346 10.7715 -0.0401808 13.8318 0.00110825C16.8041 0.0406883 19.6027 1.18701 21.7121 3.22904C23.8213 5.27093 24.9926 7.96723 25.0103 10.8214C25.0211 12.5656 24.5919 14.3025 23.7693 15.8444C23.7605 15.8609 23.7511 15.8772 23.7412 15.8932L19.5988 22.5594L22.0034 23.5869C22.2001 23.6709 22.3588 23.8198 22.4508 24.0067L27.2563 33.7672C27.4171 34.0936 27.3493 34.4818 27.0863 34.74C26.8234 34.9982 26.421 35.0721 26.0773 34.9253L20.0572 32.3518L14.037 34.9253C13.8042 35.0247 13.5382 35.0247 13.3054 34.9253L7.28522 32.3518L1.26509 34.9253C1.14747 34.9755 1.02295 35 0.8995 35C0.662348 35 0.429041 34.9099 0.256107 34.74C-0.00667572 34.4818 -0.0744534 34.0938 0.0863762 33.7672ZM22.1811 15.0326C22.8738 13.7248 23.2204 12.3116 23.2113 10.8318C23.1808 5.88056 18.9619 1.7967 13.8068 1.72814C11.2319 1.69492 8.80439 2.63041 6.97253 4.36517C5.14011 6.10033 4.13106 8.41662 4.13106 10.8875C4.13106 12.3476 4.47771 13.742 5.16146 15.0326L12.8988 27.4842C13.1351 27.8642 13.5177 27.9053 13.6712 27.9053C13.8249 27.9053 14.2075 27.8642 14.4436 27.4842L22.1811 15.0326ZM6.91956 30.6176C7.15244 30.5181 7.41836 30.5181 7.65124 30.6176L13.6714 33.191L19.6915 30.6176C19.9244 30.5181 20.1903 30.5181 20.4232 30.6176L24.5937 32.4004L20.9671 25.0347L18.6705 24.0533L15.9887 28.3691C15.4972 29.1601 14.6309 29.6324 13.6715 29.6324C12.7122 29.6324 11.8459 29.1601 11.3543 28.3691L8.67253 24.0534L6.3757 25.0351L2.74937 32.4004L6.91956 30.6176Z" fill="white"/>
</g></symbol><symbol id="icon-path" viewBox="0 0 50 65"><g fill="none">
<path fill-rule="evenodd" clip-rule="evenodd" d="M7.69101 6.83255C12.3325 2.5597 18.6178 0.168551 25.164 0.185144C31.7102 0.168551 37.9954 2.5597 42.6369 6.83255C47.2785 11.1054 49.8961 16.9099 49.914 22.9692C49.914 35.5588 31.3515 64.747 25.164 64.747C18.9765 64.747 0.413971 35.5588 0.413971 22.9692C0.431849 16.9099 3.04948 11.1054 7.69101 6.83255ZM15.4215 21.074C15.4215 26.0544 19.7833 30.0918 25.164 30.0918C30.5446 30.0918 34.9065 26.0544 34.9065 21.074C34.9065 16.0936 30.5446 12.0562 25.164 12.0562C19.7833 12.0562 15.4215 16.0936 15.4215 21.074Z" fill="black"/>
</g></symbol><symbol id="icon-shape" viewBox="0 0 13 10"><g fill="none">
<path opacity="0.74" fill-rule="evenodd" clip-rule="evenodd" d="M12.5242 2.84518L10.8988 4.51251L6.0237 9.51152C5.73022 9.81387 5.32363 10 4.87512 10C4.42661 10 4.02003 9.81387 3.72557 9.51152L0.475812 6.17885C0.181355 5.87749 0 5.4609 0 5C0 4.07918 0.727368 3.33366 1.62439 3.33366C2.07388 3.33366 2.47949 3.5198 2.77394 3.82214L4.87512 5.97597L8.60069 2.15482L10.2261 0.488477C10.5195 0.187118 10.9261 0 11.3746 0C12.2726 0 13 0.746504 13 1.66634C13 2.12724 12.8186 2.54382 12.5242 2.84518Z" fill="#303030"/>
</g></symbol><symbol id="icon-star-checked" viewBox="0 0 16 15"><g fill="none">
<path d="M8 0L10.116 5.08754L15.6085 5.52786L11.4238 9.11246L12.7023 14.4721L8 11.6L3.29772 14.4721L4.5762 9.11246L0.391548 5.52786L5.88397 5.08754L8 0Z" fill="#F2C03F"/>
</g></symbol><symbol id="icon-star-unchecked" viewBox="0 0 16 15"><g fill="none">
<path opacity="0.4" d="M8 0L10.116 5.08754L15.6085 5.52786L11.4238 9.11246L12.7023 14.4721L8 11.6L3.29772 14.4721L4.5762 9.11246L0.391548 5.52786L5.88397 5.08754L8 0Z" fill="#F2C03F"/>
</g></symbol><symbol id="icon-tw-sm" viewBox="0 0 20 17"><g fill="none">
<path d="M19.3117 2.71608C19.013 2.8491 18.7058 2.96136 18.392 3.05251C18.7636 2.63066 19.0468 2.1343 19.2197 1.59113C19.2585 1.46938 19.2183 1.33611 19.1187 1.25648C19.0191 1.17679 18.8808 1.16725 18.7712 1.23247C18.1047 1.62931 17.3857 1.9145 16.6318 2.08127C15.8723 1.33623 14.8408 0.912231 13.7745 0.912231C11.5236 0.912231 9.69239 2.75069 9.69239 5.01043C9.69239 5.18841 9.70361 5.3654 9.72582 5.53993C6.93271 5.29372 4.33601 3.91542 2.55286 1.71941C2.48932 1.64113 2.39142 1.59895 2.29119 1.60702C2.1909 1.6149 2.10079 1.67168 2.05012 1.75894C1.68846 2.38198 1.49727 3.09457 1.49727 3.81959C1.49727 4.80708 1.84844 5.74402 2.46877 6.47612C2.28015 6.41054 2.09711 6.32857 1.92241 6.2312C1.82863 6.1788 1.71417 6.1796 1.62099 6.23324C1.52775 6.28688 1.4693 6.38553 1.46684 6.49337C1.46641 6.51153 1.46641 6.5297 1.46641 6.54811C1.46641 8.02212 2.25659 9.34918 3.46468 10.0725C3.36089 10.0621 3.25717 10.047 3.15412 10.0272C3.04788 10.0068 2.93863 10.0442 2.86699 10.1256C2.79522 10.2069 2.77148 10.3202 2.80454 10.4236C3.25171 11.8253 4.403 12.8562 5.7948 13.1706C4.64044 13.8965 3.32035 14.2767 1.93456 14.2767C1.6454 14.2767 1.35459 14.2596 1.06998 14.2258C0.928587 14.2089 0.793394 14.2927 0.745242 14.4277C0.697091 14.5628 0.748125 14.7134 0.868413 14.7908C2.64868 15.9368 4.70718 16.5425 6.82126 16.5425C10.9773 16.5425 13.5772 14.5749 15.0263 12.9243C16.8334 10.8661 17.8698 8.14183 17.8698 5.45008C17.8698 5.33763 17.8681 5.22407 17.8646 5.11088C18.5776 4.57159 19.1914 3.91893 19.6909 3.16878C19.7668 3.05485 19.7586 2.90428 19.6707 2.7994C19.5829 2.69446 19.4366 2.66053 19.3117 2.71608Z" fill="#B5B5B5"/>
</g></symbol><symbol id="icon-tw" viewBox="0 0 35 29"><g fill="none">
<path d="M34.0715 3.47935C33.5238 3.72322 32.9607 3.92904 32.3854 4.09614C33.0666 3.32275 33.5859 2.41275 33.9029 1.41695C33.974 1.19374 33.9003 0.949415 33.7176 0.803431C33.535 0.657335 33.2815 0.639835 33.0805 0.759399C31.8587 1.48695 30.5404 2.0098 29.1582 2.31554C27.7659 0.949641 25.8749 0.172302 23.9199 0.172302C19.7933 0.172302 16.4361 3.5428 16.4361 7.68567C16.4361 8.01196 16.4566 8.33645 16.4974 8.65641C11.3767 8.20503 6.61605 5.67814 3.34695 1.65212C3.23044 1.50862 3.05096 1.43129 2.86721 1.44608C2.68334 1.46053 2.51814 1.56462 2.42526 1.72461C1.76221 2.86685 1.41169 4.17325 1.41169 5.50246C1.41169 7.31287 2.0555 9.03058 3.19277 10.3728C2.84697 10.2525 2.5114 10.1023 2.19112 9.92375C2.01918 9.82767 1.80933 9.82914 1.63851 9.92748C1.46758 10.0258 1.36041 10.2067 1.35591 10.4044C1.35512 10.4377 1.35512 10.471 1.35512 10.5048C1.35512 13.2071 2.80378 15.64 5.01861 16.9661C4.82833 16.947 4.63817 16.9193 4.44924 16.8831C4.25447 16.8457 4.05418 16.9143 3.92284 17.0634C3.79126 17.2124 3.74774 17.4202 3.80836 17.6099C4.62816 20.1795 6.73885 22.0697 9.29049 22.6459C7.17417 23.9767 4.754 24.6738 2.21339 24.6738C1.68327 24.6738 1.15011 24.6425 0.628317 24.5805C0.369105 24.5496 0.121252 24.7032 0.0329735 24.9507C-0.0553046 25.1983 0.038259 25.4744 0.258786 25.6163C3.5226 27.7173 7.29652 28.8278 11.1723 28.8278C18.7917 28.8278 23.5582 25.2206 26.2149 22.1944C29.5279 18.4211 31.428 13.4266 31.428 8.49169C31.428 8.28553 31.4248 8.07733 31.4185 7.86982C32.7256 6.88113 33.8509 5.68458 34.7667 4.3093C34.9058 4.10043 34.8907 3.82438 34.7296 3.63211C34.5686 3.43972 34.3004 3.37751 34.0715 3.47935Z" fill="white"/>
</g></symbol><symbol id="icon-winner" viewBox="0 0 40 37"><g fill="none">
<path d="M39.8572 4.2351C39.7734 4.10047 39.6567 3.98951 39.5183 3.91269C39.3799 3.83587 39.2243 3.79572 39.0661 3.79604H31.4441L31.8675 1.25506C31.89 1.12013 31.8827 0.981885 31.8461 0.850096C31.8095 0.718306 31.7446 0.59619 31.6558 0.49238C31.567 0.388569 31.4566 0.305596 31.3324 0.249328C31.2082 0.193059 31.0731 0.164867 30.9369 0.166744H9.06645C8.93017 0.164867 8.79514 0.193059 8.67091 0.249328C8.54668 0.305596 8.43627 0.388569 8.3475 0.49238C8.25873 0.59619 8.19376 0.718306 8.15717 0.850096C8.12059 0.981885 8.11329 1.12013 8.13579 1.25506L8.55924 3.79604H0.93252C0.77436 3.79572 0.618729 3.83586 0.480319 3.91269C0.341908 3.98951 0.225286 4.10047 0.141461 4.2351C0.0576367 4.36973 0.0093756 4.52358 0.00123408 4.68213C-0.00690743 4.84067 0.0253392 4.99869 0.0949299 5.14125L4.12932 13.4648C4.77898 14.7873 5.76374 15.9151 6.98478 16.735C8.20582 17.5548 9.62019 18.0379 11.086 18.1357C11.5209 19.373 12.2082 20.5056 13.104 21.4611C13.9998 22.4166 15.0843 23.174 16.2883 23.6847V28.1128H15.2413C14.0893 28.1128 12.9844 28.5721 12.1698 29.3898C11.3552 30.2076 10.8975 31.3166 10.8975 32.473C10.8975 33.6295 11.3552 34.7385 12.1698 35.5562C12.9844 36.3739 14.0893 36.8333 15.2413 36.8333H24.7806C25.9326 36.8333 27.0375 36.3739 27.8521 35.5562C28.6668 34.7385 29.1244 33.6295 29.1244 32.473C29.1244 31.3166 28.6668 30.2076 27.8521 29.3898C27.0375 28.5721 25.9326 28.1128 24.7806 28.1128H23.7336V23.6847C24.9346 23.1713 26.0158 22.4123 26.9083 21.4561C27.8009 20.4999 28.4851 19.3674 28.9173 18.131C30.3831 18.0332 31.7975 17.5501 33.0185 16.7303C34.2396 15.9105 35.2243 14.7827 35.874 13.4601L39.9084 5.13658C39.9764 4.99423 40.0074 4.83687 39.9985 4.67922C39.9895 4.52157 39.9409 4.36877 39.8572 4.2351ZM5.82311 12.6427L2.44018 5.6644H8.88963L10.6393 16.2066C9.6103 16.0447 8.63536 15.6362 7.79702 15.0159C6.95867 14.3955 6.28159 13.5815 5.82311 12.6427ZM27.2608 32.4754C27.2595 33.1353 26.9978 33.7678 26.533 34.2344C26.0681 34.701 25.438 34.9637 24.7806 34.965H15.2413C14.5829 34.965 13.9515 34.7024 13.4859 34.2351C13.0204 33.7678 12.7588 33.1339 12.7588 32.473C12.7588 31.8121 13.0204 31.1783 13.4859 30.711C13.9515 30.2437 14.5829 29.9811 15.2413 29.9811H24.7806C25.4388 29.9823 26.0696 30.2457 26.5346 30.7133C26.9996 31.1809 27.2608 31.8147 27.2608 32.4754ZM21.8723 28.1128H18.1496V24.2686C19.3779 24.5203 20.6441 24.5203 21.8723 24.2686V28.1128ZM20.011 22.5871C18.2141 22.592 16.4742 21.9544 15.1031 20.7887C13.732 19.6229 12.8193 18.0052 12.5285 16.2253L10.1739 2.03511H29.848L27.4934 16.2253C27.2026 18.0052 26.2899 19.6229 24.9188 20.7887C23.5477 21.9544 21.8078 22.592 20.011 22.5871ZM34.1988 12.6427C33.7397 13.5806 33.0624 14.3937 32.2241 15.0132C31.3858 15.6327 30.4112 16.0405 29.3827 16.202L31.1323 5.6644H37.5817L34.1988 12.6427Z" fill="white"/>
</g></symbol><symbol id="logo-blade" viewBox="0 0 260 145"><g fill="none">
<rect width="260" height="145" fill="white"/>
<path d="M67.3 81.7364C67.1091 84.7909 65.9636 87.0818 64.2455 88.8C62.1455 90.7091 58.7091 91.6637 53.9364 91.6637C52.7909 91.6637 51.8364 91.4727 51.2636 91.2818C50.6909 90.9 50.5 90.5182 50.5 89.7546C50.5 89.1818 50.6909 88.4182 51.0727 87.0818L52.0273 83.6455C50.3091 83.6455 48.4 83.8364 46.6818 84.0273L45.9182 86.8909C45.5364 88.2273 45.1545 89.3727 44.7727 89.9455C44.3909 90.5182 43.8182 91.0909 43.2455 91.2818C42.4818 91.4727 41.5273 91.6637 40.1909 91.6637L40 92.8091C41.5273 92.6182 43.8182 92.6182 46.8727 92.6182C48.4 92.6182 50.1182 92.6182 52.4091 92.8091H56.4182C59.2818 92.8091 61.9545 92.4273 64.4364 91.4727C66.9182 90.5182 69.0182 89.1818 70.7364 87.4637C72.2636 85.7455 73.2182 83.4546 73.2182 80.9727C71.1182 81.1637 69.2091 81.3546 67.3 81.7364Z" fill="black"/>
<path d="M52.9818 70.8546H57.5637C62.9091 70.8546 65.5818 73.3364 65.5818 78.3C65.5818 78.8727 65.5818 79.2546 65.3909 79.8273C67.3 79.6364 69.2091 79.4455 71.1182 79.2546C71.1182 76.9636 70.3546 74.8636 69.0182 73.3364C67.4909 71.8091 65.2 70.6636 61.9546 70.0909C65.2 69.1364 67.8728 67.6091 70.1637 65.7C72.4546 63.7909 73.4091 61.3091 73.4091 58.6364C73.4091 56.3455 72.4546 54.6273 70.7364 53.2909C69.0182 51.9546 66.3455 51.3818 62.9091 51.3818H58.9C57.9455 51.3818 56.8 51.3818 55.0818 51.3818C52.2182 51.3818 49.9273 51.3818 48.4 51.1909L48.0182 52.3364C49.3546 52.3364 50.5 52.5273 50.8818 52.9091C51.4546 53.2909 51.6455 53.8636 51.6455 54.4364C51.6455 55.2 51.4546 55.9636 51.2637 57.1091L44.5818 81.9273C46.4909 81.9273 48.4 81.7364 50.1182 81.5455L52.9818 70.8546ZM56.8 56.3455C57.1818 54.8182 57.7546 53.6727 58.5182 53.1C59.2818 52.5273 60.4273 52.3364 61.9546 52.3364C64.0546 52.3364 65.5818 52.9091 66.5364 53.8636C67.4909 55.0091 68.0637 56.5364 68.0637 58.8273C68.0637 60.7364 67.6818 62.6455 66.7273 64.1727C65.7728 65.8909 64.4364 67.2273 62.9091 68.1818C61.1909 69.1364 59.2818 69.7091 57.1818 69.7091H53.1728L56.8 56.3455Z" fill="black"/>
<path d="M91.9273 57.3C92.3091 55.9637 92.6909 54.8182 93.0727 54.2455C93.4546 53.6727 94.0273 53.1 94.6 52.9091C95.1727 52.7182 96.3182 52.5273 97.6546 52.5273L98.0364 51.3818C96.3182 51.5727 94.0273 51.5727 90.9727 51.5727C87.7273 51.5727 85.4364 51.5727 83.7182 51.3818L83.5273 52.5273C84.8637 52.5273 86.0091 52.7182 86.3909 53.1C86.9637 53.2909 87.1546 53.8637 87.1546 54.6273C87.1546 55.2 86.9637 56.1546 86.5818 57.3L81.0455 78.1091C82.7637 77.9182 84.6727 77.7273 86.3909 77.5364L91.9273 57.3Z" fill="black"/>
<path d="M102.809 87.4636C101.855 88.9909 100.709 89.9454 99.3728 90.7091C98.0364 91.4727 96.1273 91.6636 93.8364 91.6636H89.8273C88.491 91.6636 87.3455 91.4727 86.7728 91.2818C86.2 91.0909 86.0091 90.5182 86.0091 89.7545C86.0091 88.9909 86.2 88.2273 86.5819 87.0818L88.6819 79.4454C86.9637 79.6363 85.0546 79.8273 83.3364 80.0182L81.4273 87.0818C81.0455 88.4182 80.6637 89.5636 80.2819 90.1363C79.9 90.7091 79.3273 91.2818 78.7546 91.4727C78.1819 91.6636 77.0364 91.8545 75.7 91.8545L75.1273 92.8091C78.7546 92.6182 84.1 92.6182 91.3546 92.6182C97.2728 92.6182 101.664 92.6182 104.146 92.8091C104.527 90.1363 105.1 87.6545 105.673 85.5545C106.436 83.2636 106.818 81.7363 107.009 80.9727H105.673C104.718 83.8363 103.764 85.9363 102.809 87.4636Z" fill="black"/>
<path d="M129.536 57.8727L130.3 72.1909C132.018 72 133.736 71.8091 135.264 71.6182L134.118 51H133.355L117.127 73.7182C117.509 73.7182 118.082 73.5273 118.464 73.5273L129.536 57.8727Z" fill="black"/>
<path d="M138.127 88.2273L137.173 73.5273C135.455 73.7182 133.736 73.9091 132.209 74.1L132.4 76.7727H119.418L120.182 75.6273C119.8 75.6273 119.227 75.8182 118.846 75.8182L111.018 86.8909C108.918 89.7545 107.2 91.4727 105.482 91.8545L105.291 93C106.436 92.8091 107.964 92.8091 109.491 92.8091C111.782 92.8091 113.882 92.8091 115.791 93L115.982 91.8545C113.309 91.8545 111.782 90.9 111.782 89.3727C111.782 88.2273 112.736 86.3182 114.455 83.8363L118.655 77.9182H132.4L132.973 87.0818C132.973 88.4182 132.973 89.3727 132.591 89.9454C132.209 90.5182 131.827 91.0909 131.064 91.2818C130.3 91.4727 129.345 91.6636 128.2 91.6636L128.009 92.8091C129.536 92.6182 131.636 92.6182 134.691 92.6182C137.173 92.6182 139.273 92.6182 140.8 92.8091L140.991 91.6636C140.227 91.6636 139.655 91.2818 139.273 90.7091C138.891 90.1363 138.318 89.3727 138.127 88.2273Z" fill="black"/>
<path d="M159.891 57.1091C160.273 55.7727 160.655 54.8182 161.036 54.0546C161.418 53.2909 161.991 52.9091 162.564 52.7182C163.136 52.5273 164.091 52.3364 165.236 52.3364C169.436 52.3364 172.491 53.1 174.4 54.8182C176.309 56.5364 177.264 59.0182 177.264 62.2637C177.264 63.2182 177.264 64.1727 177.073 65.1273C178.982 64.7455 180.7 64.5546 182.609 64.1727C182.609 63.9818 182.609 63.7909 182.609 63.6C182.609 59.5909 181.273 56.5364 178.6 54.4364C175.927 52.3364 172.109 51.3818 166.764 51.3818C166 51.3818 164.282 51.3818 161.609 51.5727H156.836C154.546 51.5727 152.636 51.5727 151.491 51.3818V52.3364C152.827 52.3364 153.973 52.5273 154.355 52.9091C154.927 53.2909 155.118 53.6727 155.118 54.4364C155.118 54.8182 154.927 55.7727 154.546 57.1091L151.491 69.3273C153.209 69.1364 155.118 68.7546 156.836 68.5637L159.891 57.1091Z" fill="black"/>
<path d="M179.173 67.0364C178.982 70.8545 178.027 74.4818 176.691 77.9182C174.973 82.1182 172.491 85.5545 169.246 88.0364C166 90.5182 161.991 91.8545 157.409 91.8545C156.073 91.8545 155.309 91.6636 154.736 91.2818C154.164 90.9 153.973 90.5182 153.973 89.7545C153.973 89.1818 154.164 88.4182 154.546 87.0818L158.936 70.4727C157.218 70.6636 155.309 71.0455 153.591 71.2364L149.2 86.8909C148.818 88.2273 148.436 89.3727 148.055 89.9455C147.673 90.5182 147.1 91.0909 146.527 91.2818C145.955 91.4727 145 91.6636 143.664 91.6636L143.473 92.8091C145 92.6182 147.1 92.6182 150.155 92.6182C151.109 92.6182 152.636 92.6182 154.736 92.8091H157.982C162.946 92.8091 167.527 91.4727 171.536 88.9909C175.546 86.5091 178.791 83.0727 181.082 78.8727C183.373 74.8636 184.518 70.6636 184.518 66.0818C182.8 66.4636 180.891 66.8455 179.173 67.0364Z" fill="black"/>
<path d="M189.864 86.8909C189.482 88.2273 189.1 89.3727 188.718 89.9454C188.336 90.5182 187.764 91.0909 187.191 91.2818C186.618 91.4727 185.473 91.6636 184.136 91.6636L183.945 92.8091C187.573 92.6182 192.918 92.6182 200.173 92.6182C206.091 92.6182 210.482 92.6182 212.964 92.8091C213.345 90.1363 213.918 87.6545 214.491 85.5545C214.873 84.0273 215.255 82.6909 215.636 81.5454H214.3C213.345 84.2182 212.391 86.1273 211.436 87.6545C210.482 88.9909 209.336 89.9454 208 90.7091C206.664 91.4727 204.755 91.6636 202.464 91.6636H198.455C197.118 91.6636 195.973 91.4727 195.4 91.2818C194.827 91.0909 194.636 90.5182 194.636 89.7545C194.636 88.9909 194.827 88.2273 195.209 87.0818L198.836 73.7182H202.464C203.8 73.7182 204.946 74.1 205.518 74.6727C206.091 75.2454 206.473 76.2 206.473 77.3454C206.473 77.7273 206.473 78.3 206.282 78.8727C206.282 79.4454 206.091 79.8273 206.091 80.0182L205.9 81.1636H207.236C208 77.9182 208.573 75.2454 208.955 73.1454L209.336 71.8091C209.909 69.9 210.482 67.6091 211.246 65.1273H209.909C209.718 65.5091 209.527 65.8909 209.527 66.2727C208.955 67.6091 208.573 68.5636 208 69.3273C207.427 70.0909 206.855 70.8545 205.9 71.4273C204.945 72 203.991 72.3818 202.655 72.3818H199.027L201.509 63.0273C199.6 63.4091 197.882 63.7909 195.973 64.1727L189.864 86.8909Z" fill="black"/>
<path d="M219.836 51.3818C217.545 51.5727 213.918 51.5727 208.764 51.5727C201.509 51.5727 196.164 51.5727 192.536 51.3818L192.345 52.5273C193.682 52.5273 194.827 52.7182 195.209 53.1C195.782 53.2909 195.973 53.8637 195.973 54.6273C195.973 55.2 195.782 56.1546 195.4 57.3L194.064 62.0727C195.973 61.6909 197.691 61.3091 199.6 60.9273L200.555 57.1091C200.936 55.7727 201.318 54.6273 201.7 54.0546C202.082 53.4818 202.655 52.9091 203.227 52.7182C203.991 52.7182 204.945 52.5273 206.473 52.5273H210.482C212.582 52.5273 214.109 52.9091 214.873 53.4818C215.636 54.0546 216.018 55.2 216.018 56.9182C216.018 57.1091 216.018 57.3 216.018 57.6818C216.591 57.4909 217.164 57.4909 217.736 57.3C218.309 55.5818 219.073 53.6727 219.836 51.3818Z" fill="black"/>
<path d="M216.018 57.4909C216.018 58.4455 215.827 59.5909 215.636 61.3091H216.973C217.164 60.3546 217.355 59.2091 217.736 57.8727C217.736 57.6818 217.927 57.3 217.927 57.1091C217.355 57.3 216.782 57.4909 216.018 57.4909Z" fill="black"/>
</g></symbol><symbol id="logo" viewBox="0 0 260 145"><g fill="none">
<rect width="260" height="145" fill="white"/>
<path d="M67.3 81.7364C67.1091 84.7909 65.9636 87.0818 64.2455 88.8C62.1455 90.7091 58.7091 91.6637 53.9364 91.6637C52.7909 91.6637 51.8364 91.4727 51.2636 91.2818C50.6909 90.9 50.5 90.5182 50.5 89.7546C50.5 89.1818 50.6909 88.4182 51.0727 87.0818L52.0273 83.6455C50.3091 83.6455 48.4 83.8364 46.6818 84.0273L45.9182 86.8909C45.5364 88.2273 45.1545 89.3727 44.7727 89.9455C44.3909 90.5182 43.8182 91.0909 43.2455 91.2818C42.4818 91.4727 41.5273 91.6637 40.1909 91.6637L40 92.8091C41.5273 92.6182 43.8182 92.6182 46.8727 92.6182C48.4 92.6182 50.1182 92.6182 52.4091 92.8091H56.4182C59.2818 92.8091 61.9545 92.4273 64.4364 91.4727C66.9182 90.5182 69.0182 89.1818 70.7364 87.4637C72.2636 85.7455 73.2182 83.4546 73.2182 80.9727C71.1182 81.1637 69.2091 81.3546 67.3 81.7364Z" fill="black"/>
<path d="M52.9818 70.8546H57.5637C62.9091 70.8546 65.5818 73.3364 65.5818 78.3C65.5818 78.8727 65.5818 79.2546 65.3909 79.8273C67.3 79.6364 69.2091 79.4455 71.1182 79.2546C71.1182 76.9636 70.3546 74.8636 69.0182 73.3364C67.4909 71.8091 65.2 70.6636 61.9546 70.0909C65.2 69.1364 67.8728 67.6091 70.1637 65.7C72.4546 63.7909 73.4091 61.3091 73.4091 58.6364C73.4091 56.3455 72.4546 54.6273 70.7364 53.2909C69.0182 51.9546 66.3455 51.3818 62.9091 51.3818H58.9C57.9455 51.3818 56.8 51.3818 55.0818 51.3818C52.2182 51.3818 49.9273 51.3818 48.4 51.1909L48.0182 52.3364C49.3546 52.3364 50.5 52.5273 50.8818 52.9091C51.4546 53.2909 51.6455 53.8636 51.6455 54.4364C51.6455 55.2 51.4546 55.9636 51.2637 57.1091L44.5818 81.9273C46.4909 81.9273 48.4 81.7364 50.1182 81.5455L52.9818 70.8546ZM56.8 56.3455C57.1818 54.8182 57.7546 53.6727 58.5182 53.1C59.2818 52.5273 60.4273 52.3364 61.9546 52.3364C64.0546 52.3364 65.5818 52.9091 66.5364 53.8636C67.4909 55.0091 68.0637 56.5364 68.0637 58.8273C68.0637 60.7364 67.6819 62.6455 66.7273 64.1727C65.7728 65.8909 64.4364 67.2273 62.9091 68.1818C61.1909 69.1364 59.2818 69.7091 57.1818 69.7091H53.1728L56.8 56.3455Z" fill="black"/>
<path d="M91.9273 57.3C92.3091 55.9637 92.6909 54.8182 93.0727 54.2455C93.4546 53.6727 94.0273 53.1 94.6 52.9091C95.1727 52.7182 96.3182 52.5273 97.6546 52.5273L98.0364 51.3818C96.3182 51.5727 94.0273 51.5727 90.9727 51.5727C87.7273 51.5727 85.4364 51.5727 83.7182 51.3818L83.5273 52.5273C84.8637 52.5273 86.0091 52.7182 86.3909 53.1C86.9637 53.2909 87.1546 53.8637 87.1546 54.6273C87.1546 55.2 86.9637 56.1546 86.5818 57.3L81.0455 78.1091C82.7637 77.9182 84.6727 77.7273 86.3909 77.5364L91.9273 57.3Z" fill="black"/>
<path d="M102.809 87.4636C101.855 88.9909 100.709 89.9454 99.3728 90.7091C98.0364 91.4727 96.1273 91.6636 93.8364 91.6636H89.8273C88.491 91.6636 87.3455 91.4727 86.7728 91.2818C86.2 91.0909 86.0091 90.5182 86.0091 89.7545C86.0091 88.9909 86.2 88.2273 86.5819 87.0818L88.6819 79.4454C86.9637 79.6363 85.0546 79.8273 83.3364 80.0182L81.4273 87.0818C81.0455 88.4182 80.6637 89.5636 80.2819 90.1363C79.9 90.7091 79.3273 91.2818 78.7546 91.4727C78.1819 91.6636 77.0364 91.8545 75.7 91.8545L75.1273 92.8091C78.7546 92.6182 84.1 92.6182 91.3546 92.6182C97.2728 92.6182 101.664 92.6182 104.146 92.8091C104.527 90.1363 105.1 87.6545 105.673 85.5545C106.436 83.2636 106.818 81.7363 107.009 80.9727H105.673C104.718 83.8363 103.764 85.9363 102.809 87.4636Z" fill="black"/>
<path d="M129.536 57.8727L130.3 72.1909C132.018 72 133.736 71.8091 135.264 71.6182L134.118 51H133.355L117.127 73.7182C117.509 73.7182 118.082 73.5273 118.464 73.5273L129.536 57.8727Z" fill="black"/>
<path d="M138.127 88.2273L137.173 73.5273C135.455 73.7182 133.736 73.9091 132.209 74.1L132.4 76.7727H119.418L120.182 75.6273C119.8 75.6273 119.227 75.8182 118.846 75.8182L111.018 86.8909C108.918 89.7545 107.2 91.4727 105.482 91.8545L105.291 93C106.436 92.8091 107.964 92.8091 109.491 92.8091C111.782 92.8091 113.882 92.8091 115.791 93L115.982 91.8545C113.309 91.8545 111.782 90.9 111.782 89.3727C111.782 88.2273 112.736 86.3182 114.455 83.8363L118.655 77.9182H132.4L132.973 87.0818C132.973 88.4182 132.973 89.3727 132.591 89.9454C132.209 90.5182 131.827 91.0909 131.064 91.2818C130.3 91.4727 129.345 91.6636 128.2 91.6636L128.009 92.8091C129.536 92.6182 131.636 92.6182 134.691 92.6182C137.173 92.6182 139.273 92.6182 140.8 92.8091L140.991 91.6636C140.227 91.6636 139.655 91.2818 139.273 90.7091C138.891 90.1363 138.318 89.3727 138.127 88.2273Z" fill="black"/>
<path d="M159.891 57.1091C160.273 55.7727 160.655 54.8182 161.036 54.0546C161.418 53.2909 161.991 52.9091 162.564 52.7182C163.136 52.5273 164.091 52.3364 165.236 52.3364C169.436 52.3364 172.491 53.1 174.4 54.8182C176.309 56.5364 177.264 59.0182 177.264 62.2637C177.264 63.2182 177.264 64.1727 177.073 65.1273C178.982 64.7455 180.7 64.5546 182.609 64.1727C182.609 63.9818 182.609 63.7909 182.609 63.6C182.609 59.5909 181.273 56.5364 178.6 54.4364C175.927 52.3364 172.109 51.3818 166.764 51.3818C166 51.3818 164.282 51.3818 161.609 51.5727H156.836C154.546 51.5727 152.636 51.5727 151.491 51.3818V52.3364C152.827 52.3364 153.973 52.5273 154.355 52.9091C154.927 53.2909 155.118 53.6727 155.118 54.4364C155.118 54.8182 154.927 55.7727 154.546 57.1091L151.491 69.3273C153.209 69.1364 155.118 68.7546 156.836 68.5637L159.891 57.1091Z" fill="black"/>
<path d="M179.173 67.0364C178.982 70.8545 178.027 74.4818 176.691 77.9182C174.973 82.1182 172.491 85.5545 169.246 88.0364C166 90.5182 161.991 91.8545 157.409 91.8545C156.073 91.8545 155.309 91.6636 154.736 91.2818C154.164 90.9 153.973 90.5182 153.973 89.7545C153.973 89.1818 154.164 88.4182 154.546 87.0818L158.936 70.4727C157.218 70.6636 155.309 71.0455 153.591 71.2364L149.2 86.8909C148.818 88.2273 148.436 89.3727 148.055 89.9455C147.673 90.5182 147.1 91.0909 146.527 91.2818C145.955 91.4727 145 91.6636 143.664 91.6636L143.473 92.8091C145 92.6182 147.1 92.6182 150.155 92.6182C151.109 92.6182 152.636 92.6182 154.736 92.8091H157.982C162.946 92.8091 167.527 91.4727 171.536 88.9909C175.546 86.5091 178.791 83.0727 181.082 78.8727C183.373 74.8636 184.518 70.6636 184.518 66.0818C182.8 66.4636 180.891 66.8455 179.173 67.0364Z" fill="black"/>
<path d="M189.864 86.8909C189.482 88.2273 189.1 89.3727 188.718 89.9454C188.336 90.5182 187.764 91.0909 187.191 91.2818C186.618 91.4727 185.473 91.6636 184.136 91.6636L183.945 92.8091C187.573 92.6182 192.918 92.6182 200.173 92.6182C206.091 92.6182 210.482 92.6182 212.964 92.8091C213.345 90.1363 213.918 87.6545 214.491 85.5545C214.873 84.0273 215.255 82.6909 215.636 81.5454H214.3C213.345 84.2182 212.391 86.1273 211.436 87.6545C210.482 88.9909 209.336 89.9454 208 90.7091C206.664 91.4727 204.755 91.6636 202.464 91.6636H198.455C197.118 91.6636 195.973 91.4727 195.4 91.2818C194.827 91.0909 194.636 90.5182 194.636 89.7545C194.636 88.9909 194.827 88.2273 195.209 87.0818L198.836 73.7182H202.464C203.8 73.7182 204.946 74.1 205.518 74.6727C206.091 75.2454 206.473 76.2 206.473 77.3454C206.473 77.7273 206.473 78.3 206.282 78.8727C206.282 79.4454 206.091 79.8273 206.091 80.0182L205.9 81.1636H207.236C208 77.9182 208.573 75.2454 208.955 73.1454L209.336 71.8091C209.909 69.9 210.482 67.6091 211.246 65.1273H209.909C209.718 65.5091 209.527 65.8909 209.527 66.2727C208.955 67.6091 208.573 68.5636 208 69.3273C207.427 70.0909 206.855 70.8545 205.9 71.4273C204.945 72 203.991 72.3818 202.655 72.3818H199.027L201.509 63.0273C199.6 63.4091 197.882 63.7909 195.973 64.1727L189.864 86.8909Z" fill="black"/>
<path d="M219.836 51.3818C217.545 51.5727 213.918 51.5727 208.764 51.5727C201.509 51.5727 196.164 51.5727 192.536 51.3818L192.345 52.5273C193.682 52.5273 194.827 52.7182 195.209 53.1C195.782 53.2909 195.973 53.8637 195.973 54.6273C195.973 55.2 195.782 56.1546 195.4 57.3L194.064 62.0727C195.973 61.6909 197.691 61.3091 199.6 60.9273L200.555 57.1091C200.936 55.7727 201.318 54.6273 201.7 54.0546C202.082 53.4818 202.655 52.9091 203.227 52.7182C203.991 52.7182 204.945 52.5273 206.473 52.5273H210.482C212.582 52.5273 214.109 52.9091 214.873 53.4818C215.636 54.0546 216.018 55.2 216.018 56.9182C216.018 57.1091 216.018 57.3 216.018 57.6818C216.591 57.4909 217.164 57.4909 217.736 57.3C218.309 55.5818 219.073 53.6727 219.836 51.3818Z" fill="black"/>
<path d="M216.018 57.4909C216.018 58.4455 215.827 59.5909 215.636 61.3091H216.973C217.164 60.3546 217.355 59.2091 217.736 57.8727C217.736 57.6818 217.927 57.3 217.927 57.1091C217.355 57.3 216.782 57.4909 216.018 57.4909Z" fill="black"/>
</g></symbol></svg>