<svg width="50" height="65" viewBox="0 0 50 65" fill="none" xmlns="http://www.w3.org/2000/svg">
<path fill-rule="evenodd" clip-rule="evenodd" d="M7.69101 6.83255C12.3325 2.5597 18.6178 0.168551 25.164 0.185144C31.7102 0.168551 37.9954 2.5597 42.6369 6.83255C47.2785 11.1054 49.8961 16.9099 49.914 22.9692C49.914 35.5588 31.3515 64.747 25.164 64.747C18.9765 64.747 0.413971 35.5588 0.413971 22.9692C0.431849 16.9099 3.04948 11.1054 7.69101 6.83255ZM15.4215 21.074C15.4215 26.0544 19.7833 30.0918 25.164 30.0918C30.5446 30.0918 34.9065 26.0544 34.9065 21.074C34.9065 16.0936 30.5446 12.0562 25.164 12.0562C19.7833 12.0562 15.4215 16.0936 15.4215 21.074Z" fill="black"/>
</svg>
