<svg width="20" height="19" viewBox="0 0 20 19" fill="none" xmlns="http://www.w3.org/2000/svg">
<path d="M3.09006 0.490479H16.7675C18.0669 0.490479 19.1292 1.55735 19.1292 2.86194V16.5937C19.1292 17.8979 18.0669 18.9641 16.7675 18.9641H3.09006C1.79064 18.9641 0.727249 17.8979 0.727249 16.5937V2.86194C0.727249 1.55735 1.79064 0.490479 3.09006 0.490479ZM14.1328 2.54226C13.6766 2.54226 13.3044 2.91736 13.3044 3.37518V5.36519C13.3044 5.82319 13.6766 6.19743 14.1328 6.19743H16.2124C16.6679 6.19743 17.0409 5.82319 17.0409 5.36519V3.37518C17.0409 2.91736 16.6679 2.54226 16.2124 2.54226H14.1328ZM17.0488 8.30272H15.4297C15.5832 8.80617 15.6664 9.33708 15.6664 9.88906C15.6664 12.961 13.1045 15.4525 9.94552 15.4525C6.78731 15.4525 4.22534 12.961 4.22534 9.88906C4.22534 9.33708 4.30937 8.80617 4.46217 8.30272H2.77293V16.1073C2.77293 16.5115 3.10165 16.8403 3.50386 16.8403H16.3182C16.7207 16.8403 17.0488 16.5115 17.0488 16.1073V8.30272ZM9.94558 6.09249C7.90542 6.09249 6.25047 7.70155 6.25047 9.68823C6.25047 11.6729 7.90542 13.2832 9.94558 13.2832C11.9868 13.2832 13.6419 11.6729 13.6419 9.68823C13.6419 7.70148 11.9868 6.09249 9.94558 6.09249Z" fill="#B5B5B5"/>
</svg>
