<svg width="18" height="35" viewBox="0 0 18 35" fill="none" xmlns="http://www.w3.org/2000/svg">
<path d="M0.562281 18.641H4.38366V34.4355C4.38366 34.7473 4.63533 35 4.94594 35H11.4252C11.7358 35 11.9875 34.7473 11.9875 34.4355V18.7154H16.3805C16.6661 18.7154 16.9065 18.5002 16.9391 18.2154L17.6063 12.4006C17.6246 12.2406 17.5741 12.0804 17.4675 11.9604C17.3608 11.8403 17.2081 11.7715 17.0478 11.7715H11.9877V8.12655C11.9877 7.02777 12.577 6.4706 13.7393 6.4706C13.905 6.4706 17.0478 6.4706 17.0478 6.4706C17.3584 6.4706 17.6101 6.21781 17.6101 5.90608V0.568694C17.6101 0.256855 17.3584 0.00417742 17.0478 0.00417742H12.4883C12.4561 0.00259677 12.3847 0 12.2794 0C11.4883 0 8.73841 0.155919 6.56621 2.16221C4.15942 4.3855 4.49398 7.04753 4.57393 7.50908V11.7714H0.562281C0.251677 11.7714 0 12.0241 0 12.3359V18.0764C0 18.3882 0.251677 18.641 0.562281 18.641Z" fill="white"/>
</svg>
