<svg width="28" height="35" viewBox="0 0 28 35" fill="none" xmlns="http://www.w3.org/2000/svg">
<path d="M0.0863762 33.7672L4.89199 24.0068C4.98789 23.812 5.15406 23.6628 5.35334 23.5814L7.74408 22.5595L3.60158 15.8932C3.59168 15.8772 3.58235 15.861 3.57345 15.8445C2.74987 14.301 2.33224 12.6331 2.33224 10.8874C2.33224 7.95075 3.53159 5.19765 5.70938 3.13532C7.88682 1.07346 10.7715 -0.0401808 13.8318 0.00110825C16.8041 0.0406883 19.6027 1.18701 21.7121 3.22904C23.8213 5.27093 24.9926 7.96723 25.0103 10.8214C25.0211 12.5656 24.5919 14.3025 23.7693 15.8444C23.7605 15.8609 23.7511 15.8772 23.7412 15.8932L19.5988 22.5594L22.0034 23.5869C22.2001 23.6709 22.3588 23.8198 22.4508 24.0067L27.2563 33.7672C27.4171 34.0936 27.3493 34.4818 27.0863 34.74C26.8234 34.9982 26.421 35.0721 26.0773 34.9253L20.0572 32.3518L14.037 34.9253C13.8042 35.0247 13.5382 35.0247 13.3054 34.9253L7.28522 32.3518L1.26509 34.9253C1.14747 34.9755 1.02295 35 0.8995 35C0.662348 35 0.429041 34.9099 0.256107 34.74C-0.00667572 34.4818 -0.0744534 34.0938 0.0863762 33.7672ZM22.1811 15.0326C22.8738 13.7248 23.2204 12.3116 23.2113 10.8318C23.1808 5.88056 18.9619 1.7967 13.8068 1.72814C11.2319 1.69492 8.80439 2.63041 6.97253 4.36517C5.14011 6.10033 4.13106 8.41662 4.13106 10.8875C4.13106 12.3476 4.47771 13.742 5.16146 15.0326L12.8988 27.4842C13.1351 27.8642 13.5177 27.9053 13.6712 27.9053C13.8249 27.9053 14.2075 27.8642 14.4436 27.4842L22.1811 15.0326ZM6.91956 30.6176C7.15244 30.5181 7.41836 30.5181 7.65124 30.6176L13.6714 33.191L19.6915 30.6176C19.9244 30.5181 20.1903 30.5181 20.4232 30.6176L24.5937 32.4004L20.9671 25.0347L18.6705 24.0533L15.9887 28.3691C15.4972 29.1601 14.6309 29.6324 13.6715 29.6324C12.7122 29.6324 11.8459 29.1601 11.3543 28.3691L8.67253 24.0534L6.3757 25.0351L2.74937 32.4004L6.91956 30.6176Z" fill="white"/>
</svg>
