<svg width="40" height="37" viewBox="0 0 40 37" fill="none" xmlns="http://www.w3.org/2000/svg">
<path d="M39.8572 4.2351C39.7734 4.10047 39.6567 3.98951 39.5183 3.91269C39.3799 3.83587 39.2243 3.79572 39.0661 3.79604H31.4441L31.8675 1.25506C31.89 1.12013 31.8827 0.981885 31.8461 0.850096C31.8095 0.718306 31.7446 0.59619 31.6558 0.49238C31.567 0.388569 31.4566 0.305596 31.3324 0.249328C31.2082 0.193059 31.0731 0.164867 30.9369 0.166744H9.06645C8.93017 0.164867 8.79514 0.193059 8.67091 0.249328C8.54668 0.305596 8.43627 0.388569 8.3475 0.49238C8.25873 0.59619 8.19376 0.718306 8.15717 0.850096C8.12059 0.981885 8.11329 1.12013 8.13579 1.25506L8.55924 3.79604H0.93252C0.77436 3.79572 0.618729 3.83586 0.480319 3.91269C0.341908 3.98951 0.225286 4.10047 0.141461 4.2351C0.0576367 4.36973 0.0093756 4.52358 0.00123408 4.68213C-0.00690743 4.84067 0.0253392 4.99869 0.0949299 5.14125L4.12932 13.4648C4.77898 14.7873 5.76374 15.9151 6.98478 16.735C8.20582 17.5548 9.62019 18.0379 11.086 18.1357C11.5209 19.373 12.2082 20.5056 13.104 21.4611C13.9998 22.4166 15.0843 23.174 16.2883 23.6847V28.1128H15.2413C14.0893 28.1128 12.9844 28.5721 12.1698 29.3898C11.3552 30.2076 10.8975 31.3166 10.8975 32.473C10.8975 33.6295 11.3552 34.7385 12.1698 35.5562C12.9844 36.3739 14.0893 36.8333 15.2413 36.8333H24.7806C25.9326 36.8333 27.0375 36.3739 27.8521 35.5562C28.6668 34.7385 29.1244 33.6295 29.1244 32.473C29.1244 31.3166 28.6668 30.2076 27.8521 29.3898C27.0375 28.5721 25.9326 28.1128 24.7806 28.1128H23.7336V23.6847C24.9346 23.1713 26.0158 22.4123 26.9083 21.4561C27.8009 20.4999 28.4851 19.3674 28.9173 18.131C30.3831 18.0332 31.7975 17.5501 33.0185 16.7303C34.2396 15.9105 35.2243 14.7827 35.874 13.4601L39.9084 5.13658C39.9764 4.99423 40.0074 4.83687 39.9985 4.67922C39.9895 4.52157 39.9409 4.36877 39.8572 4.2351ZM5.82311 12.6427L2.44018 5.6644H8.88963L10.6393 16.2066C9.6103 16.0447 8.63536 15.6362 7.79702 15.0159C6.95867 14.3955 6.28159 13.5815 5.82311 12.6427ZM27.2608 32.4754C27.2595 33.1353 26.9978 33.7678 26.533 34.2344C26.0681 34.701 25.438 34.9637 24.7806 34.965H15.2413C14.5829 34.965 13.9515 34.7024 13.4859 34.2351C13.0204 33.7678 12.7588 33.1339 12.7588 32.473C12.7588 31.8121 13.0204 31.1783 13.4859 30.711C13.9515 30.2437 14.5829 29.9811 15.2413 29.9811H24.7806C25.4388 29.9823 26.0696 30.2457 26.5346 30.7133C26.9996 31.1809 27.2608 31.8147 27.2608 32.4754ZM21.8723 28.1128H18.1496V24.2686C19.3779 24.5203 20.6441 24.5203 21.8723 24.2686V28.1128ZM20.011 22.5871C18.2141 22.592 16.4742 21.9544 15.1031 20.7887C13.732 19.6229 12.8193 18.0052 12.5285 16.2253L10.1739 2.03511H29.848L27.4934 16.2253C27.2026 18.0052 26.2899 19.6229 24.9188 20.7887C23.5477 21.9544 21.8078 22.592 20.011 22.5871ZM34.1988 12.6427C33.7397 13.5806 33.0624 14.3937 32.2241 15.0132C31.3858 15.6327 30.4112 16.0405 29.3827 16.202L31.1323 5.6644H37.5817L34.1988 12.6427Z" fill="white"/>
</svg>
