<svg width="20" height="17" viewBox="0 0 20 17" fill="none" xmlns="http://www.w3.org/2000/svg">
<path d="M19.3117 2.71608C19.013 2.8491 18.7058 2.96136 18.392 3.05251C18.7636 2.63066 19.0468 2.1343 19.2197 1.59113C19.2585 1.46938 19.2183 1.33611 19.1187 1.25648C19.0191 1.17679 18.8808 1.16725 18.7712 1.23247C18.1047 1.62931 17.3857 1.9145 16.6318 2.08127C15.8723 1.33623 14.8408 0.912231 13.7745 0.912231C11.5236 0.912231 9.69239 2.75069 9.69239 5.01043C9.69239 5.18841 9.70361 5.3654 9.72582 5.53993C6.93271 5.29372 4.33601 3.91542 2.55286 1.71941C2.48932 1.64113 2.39142 1.59895 2.29119 1.60702C2.1909 1.6149 2.10079 1.67168 2.05012 1.75894C1.68846 2.38198 1.49727 3.09457 1.49727 3.81959C1.49727 4.80708 1.84844 5.74402 2.46877 6.47612C2.28015 6.41054 2.09711 6.32857 1.92241 6.2312C1.82863 6.1788 1.71417 6.1796 1.62099 6.23324C1.52775 6.28688 1.4693 6.38553 1.46684 6.49337C1.46641 6.51153 1.46641 6.5297 1.46641 6.54811C1.46641 8.02212 2.25659 9.34918 3.46468 10.0725C3.36089 10.0621 3.25717 10.047 3.15412 10.0272C3.04788 10.0068 2.93863 10.0442 2.86699 10.1256C2.79522 10.2069 2.77148 10.3202 2.80454 10.4236C3.25171 11.8253 4.403 12.8562 5.7948 13.1706C4.64044 13.8965 3.32035 14.2767 1.93456 14.2767C1.6454 14.2767 1.35459 14.2596 1.06998 14.2258C0.928587 14.2089 0.793394 14.2927 0.745242 14.4277C0.697091 14.5628 0.748125 14.7134 0.868413 14.7908C2.64868 15.9368 4.70718 16.5425 6.82126 16.5425C10.9773 16.5425 13.5772 14.5749 15.0263 12.9243C16.8334 10.8661 17.8698 8.14183 17.8698 5.45008C17.8698 5.33763 17.8681 5.22407 17.8646 5.11088C18.5776 4.57159 19.1914 3.91893 19.6909 3.16878C19.7668 3.05485 19.7586 2.90428 19.6707 2.7994C19.5829 2.69446 19.4366 2.66053 19.3117 2.71608Z" fill="#B5B5B5"/>
</svg>
