<svg width="35" height="29" viewBox="0 0 35 29" fill="none" xmlns="http://www.w3.org/2000/svg">
<path d="M34.0715 3.47935C33.5238 3.72322 32.9607 3.92904 32.3854 4.09614C33.0666 3.32275 33.5859 2.41275 33.9029 1.41695C33.974 1.19374 33.9003 0.949415 33.7176 0.803431C33.535 0.657335 33.2815 0.639835 33.0805 0.759399C31.8587 1.48695 30.5404 2.0098 29.1582 2.31554C27.7659 0.949641 25.8749 0.172302 23.9199 0.172302C19.7933 0.172302 16.4361 3.5428 16.4361 7.68567C16.4361 8.01196 16.4566 8.33645 16.4974 8.65641C11.3767 8.20503 6.61605 5.67814 3.34695 1.65212C3.23044 1.50862 3.05096 1.43129 2.86721 1.44608C2.68334 1.46053 2.51814 1.56462 2.42526 1.72461C1.76221 2.86685 1.41169 4.17325 1.41169 5.50246C1.41169 7.31287 2.0555 9.03058 3.19277 10.3728C2.84697 10.2525 2.5114 10.1023 2.19112 9.92375C2.01918 9.82767 1.80933 9.82914 1.63851 9.92748C1.46758 10.0258 1.36041 10.2067 1.35591 10.4044C1.35512 10.4377 1.35512 10.471 1.35512 10.5048C1.35512 13.2071 2.80378 15.64 5.01861 16.9661C4.82833 16.947 4.63817 16.9193 4.44924 16.8831C4.25447 16.8457 4.05418 16.9143 3.92284 17.0634C3.79126 17.2124 3.74774 17.4202 3.80836 17.6099C4.62816 20.1795 6.73885 22.0697 9.29049 22.6459C7.17417 23.9767 4.754 24.6738 2.21339 24.6738C1.68327 24.6738 1.15011 24.6425 0.628317 24.5805C0.369105 24.5496 0.121252 24.7032 0.0329735 24.9507C-0.0553046 25.1983 0.038259 25.4744 0.258786 25.6163C3.5226 27.7173 7.29652 28.8278 11.1723 28.8278C18.7917 28.8278 23.5582 25.2206 26.2149 22.1944C29.5279 18.4211 31.428 13.4266 31.428 8.49169C31.428 8.28553 31.4248 8.07733 31.4185 7.86982C32.7256 6.88113 33.8509 5.68458 34.7667 4.3093C34.9058 4.10043 34.8907 3.82438 34.7296 3.63211C34.5686 3.43972 34.3004 3.37751 34.0715 3.47935Z" fill="white"/>
</svg>
